<svg width="481" height="286" viewBox="0 0 481 286" fill="none" xmlns="http://www.w3.org/2000/svg">
<rect x="0.5" y="0.5" width="480" height="285" rx="11.5" fill="white" stroke="#E5E5E5"/>
<rect x="305.547" y="17.5469" width="158.906" height="33.9062" rx="16.9531" fill="#F7F9FB" stroke="#E5E5E5" stroke-width="1.09375"/>
<g filter="url(#filter0_d_1_1103)">
<rect x="386.366" y="21" width="74.6667" height="26.25" rx="13.125" fill="#4F45E4"/>
</g>
<path opacity="0.5" d="M334.492 37.9375H331.616V30.6422H334.492C335.637 30.6422 336.567 30.9776 337.281 31.6484C338.003 32.3193 338.364 33.2016 338.364 34.2953C338.364 35.3891 338.007 36.2714 337.292 36.9422C336.578 37.6057 335.645 37.9375 334.492 37.9375ZM334.492 36.5703C335.192 36.5703 335.747 36.3516 336.155 35.9141C336.571 35.4766 336.778 34.937 336.778 34.2953C336.778 33.6245 336.578 33.0776 336.177 32.6547C335.776 32.2245 335.214 32.0094 334.492 32.0094H333.169V36.5703H334.492ZM345.896 37.9375H344.124L343.675 36.7016H340.547L340.088 37.9375H338.316L341.138 30.6422H343.085L345.896 37.9375ZM343.249 35.3344L342.111 32.1953L340.974 35.3344H343.249ZM348.123 37.9375H346.569V30.6422H348.123V37.9375ZM354.208 37.9375H349.571V30.6422H351.124V36.5703H354.208V37.9375ZM357.495 37.9375H355.942V34.9516L353.131 30.6422H354.903L356.718 33.5734L358.512 30.6422H360.284L357.495 34.9516V37.9375Z" fill="black"/>
<path d="M411.922 38H410.27L408.991 32.9906L407.722 38H406.07L403.981 30.7047H405.72L407 35.9766L408.389 30.7047H409.603L410.981 35.9766L412.25 30.7047H414L411.922 38ZM419.895 38H414.733V30.7047H419.895V32.0719H416.286V33.6141H419.819V34.9812H416.286V36.6328H419.895V38ZM426.272 38H421.109V30.7047H426.272V32.0719H422.662V33.6141H426.195V34.9812H422.662V36.6328H426.272V38ZM433.731 38H431.817L429.608 35.0797L429.039 35.7578V38H427.486V30.7047H429.039V33.9641L431.62 30.7047H433.534L430.636 34.1281L433.731 38ZM439.077 38H434.439V30.7047H435.992V36.6328H439.077V38ZM442.363 38H440.81V35.0141L437.999 30.7047H439.771L441.587 33.6359L443.381 30.7047H445.152L442.363 35.0141V38Z" fill="white"/>
<path d="M19.328 31H17.056V20.328H19.328V31ZM28.6466 31H26.6146V26.328C26.6146 25.368 26.14 24.888 25.1906 24.888C24.4546 24.888 23.868 25.192 23.4306 25.8V31H21.3986V23.272H23.4306V24.28C24.1026 23.48 25.004 23.08 26.1346 23.08C26.9666 23.08 27.5906 23.2987 28.0066 23.736C28.4333 24.1733 28.6466 24.776 28.6466 25.544V31ZM34.8563 31H32.6643L29.5602 23.272H31.7363L33.7523 28.648L35.7683 23.272H37.9603L34.8563 31ZM42.4994 31.192C41.3047 31.192 40.318 30.8187 39.5394 30.072C38.7607 29.3253 38.3714 28.344 38.3714 27.128C38.3714 25.9867 38.7447 25.0267 39.4914 24.248C40.2487 23.4693 41.2087 23.08 42.3714 23.08C43.5234 23.08 44.4567 23.4747 45.1714 24.264C45.886 25.0427 46.2434 26.0667 46.2434 27.336V27.784H40.4994C40.5634 28.296 40.7927 28.7227 41.1874 29.064C41.582 29.4053 42.094 29.576 42.7234 29.576C43.0647 29.576 43.4327 29.5067 43.8274 29.368C44.2327 29.2293 44.5527 29.0427 44.7874 28.808L45.6834 30.12C44.9047 30.8347 43.8434 31.192 42.4994 31.192ZM44.2754 26.408C44.2434 25.9707 44.0674 25.576 43.7474 25.224C43.438 24.872 42.9794 24.696 42.3714 24.696C41.7954 24.696 41.3474 24.872 41.0274 25.224C40.7074 25.5653 40.5207 25.96 40.4674 26.408H44.2754ZM54.9591 31H52.9271V26.328C52.9271 25.368 52.4525 24.888 51.5031 24.888C50.7671 24.888 50.1805 25.192 49.7431 25.8V31H47.7111V23.272H49.7431V24.28C50.4151 23.48 51.3165 23.08 52.4471 23.08C53.2791 23.08 53.9031 23.2987 54.3191 23.736C54.7458 24.1733 54.9591 24.776 54.9591 25.544V31ZM59.5688 31.192C58.8541 31.192 58.3101 31.0107 57.9368 30.648C57.5634 30.2853 57.3768 29.7627 57.3768 29.08V25.048H56.0968V23.272H57.3768V21.16H59.4248V23.272H60.9928V25.048H59.4248V28.536C59.4248 28.7813 59.4888 28.984 59.6168 29.144C59.7448 29.304 59.9154 29.384 60.1288 29.384C60.4488 29.384 60.6834 29.3093 60.8328 29.16L61.2648 30.696C60.8914 31.0267 60.3261 31.192 59.5688 31.192ZM68.943 30.024C68.1963 30.8027 67.2043 31.192 65.967 31.192C64.7297 31.192 63.7377 30.8027 62.991 30.024C62.255 29.2347 61.887 28.2693 61.887 27.128C61.887 25.9867 62.255 25.0267 62.991 24.248C63.7377 23.4693 64.7297 23.08 65.967 23.08C67.2043 23.08 68.1963 23.4693 68.943 24.248C69.6897 25.0267 70.063 25.9867 70.063 27.128C70.063 28.2693 69.6897 29.2347 68.943 30.024ZM64.527 28.744C64.879 29.1707 65.359 29.384 65.967 29.384C66.575 29.384 67.055 29.1707 67.407 28.744C67.7697 28.3067 67.951 27.768 67.951 27.128C67.951 26.4987 67.7697 25.9707 67.407 25.544C67.055 25.1067 66.575 24.888 65.967 24.888C65.359 24.888 64.879 25.1067 64.527 25.544C64.175 25.9707 63.999 26.4987 63.999 27.128C63.999 27.768 64.175 28.3067 64.527 28.744ZM73.6025 31H71.5705V23.272H73.6025V24.328C73.8905 23.9653 74.2585 23.6667 74.7065 23.432C75.1545 23.1973 75.6078 23.08 76.0665 23.08V25.064C75.9278 25.032 75.7412 25.016 75.5065 25.016C75.1652 25.016 74.8025 25.1013 74.4185 25.272C74.0345 25.4427 73.7625 25.6507 73.6025 25.896V31ZM77.0641 34.024L77.3681 32.2C77.5601 32.2853 77.7735 32.328 78.0081 32.328C78.5521 32.328 78.9095 32.1413 79.0801 31.768L79.3681 31.112L76.2321 23.272H78.4081L80.4241 28.648L82.4401 23.272H84.6321L81.0001 32.264C80.7335 32.9467 80.3601 33.4213 79.8801 33.688C79.4001 33.9653 78.7975 34.1147 78.0721 34.136C77.6988 34.136 77.3628 34.0987 77.0641 34.024ZM94.737 31.192C93.1263 31.192 91.793 30.6747 90.737 29.64C89.6917 28.5947 89.169 27.272 89.169 25.672C89.169 24.072 89.6917 22.7547 90.737 21.72C91.793 20.6747 93.1263 20.152 94.737 20.152C96.3583 20.152 97.6917 20.6693 98.737 21.704C99.793 22.7387 100.321 24.0613 100.321 25.672C100.321 27.2827 99.793 28.6053 98.737 29.64C97.6917 30.6747 96.3583 31.192 94.737 31.192ZM92.385 28.184C92.9823 28.8453 93.7663 29.176 94.737 29.176C95.7077 29.176 96.4917 28.8453 97.089 28.184C97.6863 27.5227 97.985 26.6853 97.985 25.672C97.985 24.6587 97.6863 23.8213 97.089 23.16C96.4917 22.4987 95.7077 22.168 94.737 22.168C93.7663 22.168 92.9823 22.4987 92.385 23.16C91.7983 23.8213 91.505 24.6587 91.505 25.672C91.505 26.6853 91.7983 27.5227 92.385 28.184ZM106.059 31H103.867L100.763 23.272H102.939L104.955 28.648L106.971 23.272H109.163L106.059 31ZM113.703 31.192C112.508 31.192 111.521 30.8187 110.743 30.072C109.964 29.3253 109.575 28.344 109.575 27.128C109.575 25.9867 109.948 25.0267 110.695 24.248C111.452 23.4693 112.412 23.08 113.575 23.08C114.727 23.08 115.66 23.4747 116.375 24.264C117.089 25.0427 117.447 26.0667 117.447 27.336V27.784H111.703C111.767 28.296 111.996 28.7227 112.391 29.064C112.785 29.4053 113.297 29.576 113.927 29.576C114.268 29.576 114.636 29.5067 115.031 29.368C115.436 29.2293 115.756 29.0427 115.991 28.808L116.887 30.12C116.108 30.8347 115.047 31.192 113.703 31.192ZM115.479 26.408C115.447 25.9707 115.271 25.576 114.951 25.224C114.641 24.872 114.183 24.696 113.575 24.696C112.999 24.696 112.551 24.872 112.231 25.224C111.911 25.5653 111.724 25.96 111.671 26.408H115.479ZM120.946 31H118.914V23.272H120.946V24.328C121.234 23.9653 121.602 23.6667 122.05 23.432C122.498 23.1973 122.952 23.08 123.41 23.08V25.064C123.272 25.032 123.085 25.016 122.85 25.016C122.509 25.016 122.146 25.1013 121.762 25.272C121.378 25.4427 121.106 25.6507 120.946 25.896V31ZM128.872 31H126.68L123.576 23.272H125.752L127.768 28.648L129.784 23.272H131.976L128.872 31ZM133.891 22.44C133.56 22.44 133.272 22.3227 133.027 22.088C132.792 21.8427 132.675 21.5547 132.675 21.224C132.675 20.8933 132.792 20.6107 133.027 20.376C133.272 20.1413 133.56 20.024 133.891 20.024C134.232 20.024 134.52 20.1413 134.755 20.376C134.99 20.6107 135.107 20.8933 135.107 21.224C135.107 21.5547 134.99 21.8427 134.755 22.088C134.52 22.3227 134.232 22.44 133.891 22.44ZM134.915 31H132.883V23.272H134.915V31ZM140.562 31.192C139.367 31.192 138.381 30.8187 137.602 30.072C136.823 29.3253 136.434 28.344 136.434 27.128C136.434 25.9867 136.807 25.0267 137.554 24.248C138.311 23.4693 139.271 23.08 140.434 23.08C141.586 23.08 142.519 23.4747 143.234 24.264C143.949 25.0427 144.306 26.0667 144.306 27.336V27.784H138.562C138.626 28.296 138.855 28.7227 139.25 29.064C139.645 29.4053 140.157 29.576 140.786 29.576C141.127 29.576 141.495 29.5067 141.89 29.368C142.295 29.2293 142.615 29.0427 142.85 28.808L143.746 30.12C142.967 30.8347 141.906 31.192 140.562 31.192ZM142.338 26.408C142.306 25.9707 142.13 25.576 141.81 25.224C141.501 24.872 141.042 24.696 140.434 24.696C139.858 24.696 139.41 24.872 139.09 25.224C138.77 25.5653 138.583 25.96 138.53 26.408H142.338ZM154.718 31H152.558L150.926 25.736L149.294 31H147.118L144.766 23.272H146.878L148.318 28.472L150.014 23.272H151.822L153.518 28.472L154.958 23.272H157.07L154.718 31Z" fill="black"/>
<path opacity="0.6" d="M17.932 55H16.936V46.996H17.932V55ZM24.5831 55H23.6831V51.208C23.6831 50.72 23.5711 50.376 23.3471 50.176C23.1231 49.968 22.8031 49.864 22.3871 49.864C22.0511 49.864 21.7231 49.952 21.4031 50.128C21.0911 50.304 20.8471 50.516 20.6711 50.764V55H19.7711V49.204H20.6711V50.044C20.8951 49.78 21.1951 49.552 21.5711 49.36C21.9471 49.16 22.3351 49.06 22.7351 49.06C23.9671 49.06 24.5831 49.684 24.5831 50.932V55ZM28.7205 52.492H25.8405V51.7H28.7205V52.492ZM32.6061 55.144C31.3101 55.144 30.2861 54.72 29.5341 53.872L30.1221 53.116C30.8021 53.876 31.6421 54.256 32.6421 54.256C33.2901 54.256 33.7661 54.12 34.0701 53.848C34.3741 53.568 34.5261 53.244 34.5261 52.876C34.5261 52.596 34.4381 52.36 34.2621 52.168C34.0861 51.976 33.8581 51.828 33.5781 51.724C33.3061 51.612 32.9981 51.512 32.6541 51.424C32.3181 51.336 31.9821 51.24 31.6461 51.136C31.3101 51.024 31.0021 50.892 30.7221 50.74C30.4501 50.588 30.2261 50.372 30.0501 50.092C29.8741 49.812 29.7861 49.48 29.7861 49.096C29.7861 48.44 30.0461 47.908 30.5661 47.5C31.0861 47.084 31.7421 46.876 32.5341 46.876C33.7261 46.876 34.6741 47.248 35.3781 47.992L34.7781 48.724C34.1941 48.084 33.4221 47.764 32.4621 47.764C31.9821 47.764 31.5861 47.884 31.2741 48.124C30.9701 48.356 30.8181 48.66 30.8181 49.036C30.8181 49.316 30.9341 49.548 31.1661 49.732C31.4061 49.916 31.6981 50.052 32.0421 50.14C32.3941 50.228 32.7741 50.34 33.1821 50.476C33.5981 50.604 33.9781 50.744 34.3221 50.896C34.6741 51.04 34.9661 51.276 35.1981 51.604C35.4381 51.932 35.5581 52.328 35.5581 52.792C35.5581 53.448 35.3141 54.004 34.8261 54.46C34.3461 54.916 33.6061 55.144 32.6061 55.144ZM38.2742 55.144C37.8502 55.144 37.5302 55.028 37.3142 54.796C37.0982 54.564 36.9902 54.228 36.9902 53.788V49.996H36.0302V49.204H36.9902V47.62H37.8902V49.204H39.0662V49.996H37.8902V53.596C37.8902 53.82 37.9382 54 38.0342 54.136C38.1382 54.272 38.2862 54.34 38.4782 54.34C38.7422 54.34 38.9462 54.26 39.0902 54.1L39.3542 54.772C39.0902 55.02 38.7302 55.144 38.2742 55.144ZM44.9455 54.268C44.4255 54.852 43.7335 55.144 42.8695 55.144C42.0055 55.144 41.3095 54.852 40.7815 54.268C40.2615 53.684 40.0015 52.96 40.0015 52.096C40.0015 51.232 40.2615 50.512 40.7815 49.936C41.3095 49.352 42.0055 49.06 42.8695 49.06C43.7335 49.06 44.4255 49.352 44.9455 49.936C45.4735 50.512 45.7375 51.232 45.7375 52.096C45.7375 52.96 45.4735 53.684 44.9455 54.268ZM41.4535 53.692C41.8055 54.124 42.2775 54.34 42.8695 54.34C43.4615 54.34 43.9295 54.124 44.2735 53.692C44.6175 53.252 44.7895 52.72 44.7895 52.096C44.7895 51.472 44.6175 50.944 44.2735 50.512C43.9295 50.08 43.4615 49.864 42.8695 49.864C42.2775 49.864 41.8055 50.084 41.4535 50.524C41.1095 50.956 40.9375 51.48 40.9375 52.096C40.9375 52.72 41.1095 53.252 41.4535 53.692ZM49.7607 55.144C48.9047 55.144 48.2087 54.856 47.6727 54.28C47.1367 53.696 46.8687 52.968 46.8687 52.096C46.8687 51.224 47.1367 50.5 47.6727 49.924C48.2087 49.348 48.9047 49.06 49.7607 49.06C50.6567 49.06 51.3647 49.396 51.8847 50.068L51.2847 50.62C50.9167 50.116 50.4247 49.864 49.8087 49.864C49.2007 49.864 48.7127 50.072 48.3447 50.488C47.9847 50.904 47.8047 51.44 47.8047 52.096C47.8047 52.752 47.9847 53.292 48.3447 53.716C48.7127 54.132 49.2007 54.34 49.8087 54.34C50.4167 54.34 50.9087 54.088 51.2847 53.584L51.8847 54.136C51.3647 54.808 50.6567 55.144 49.7607 55.144ZM58.2461 55H57.0941L55.0061 52.396L54.0461 53.344V55H53.1461V46.996H54.0461V52.288L57.0941 49.204H58.2341L55.6661 51.832L58.2461 55ZM63.4359 55H62.4399V46.996H65.6559C66.4319 46.996 67.0439 47.228 67.4919 47.692C67.9399 48.156 68.1639 48.728 68.1639 49.408C68.1639 50.088 67.9359 50.66 67.4799 51.124C67.0319 51.588 66.4239 51.82 65.6559 51.82H63.4359V55ZM65.5359 50.932C66.0079 50.932 66.3919 50.792 66.6879 50.512C66.9839 50.224 67.1319 49.856 67.1319 49.408C67.1319 48.96 66.9839 48.596 66.6879 48.316C66.3919 48.028 66.0079 47.884 65.5359 47.884H63.4359V50.932H65.5359ZM70.3469 55H69.4469V49.204H70.3469V50.14C70.8829 49.436 71.5269 49.084 72.2789 49.084V50.008C72.1669 49.984 72.0469 49.972 71.9189 49.972C71.6469 49.972 71.3509 50.068 71.0309 50.26C70.7109 50.452 70.4829 50.664 70.3469 50.896V55ZM78.0158 54.268C77.4958 54.852 76.8038 55.144 75.9398 55.144C75.0758 55.144 74.3798 54.852 73.8518 54.268C73.3318 53.684 73.0718 52.96 73.0718 52.096C73.0718 51.232 73.3318 50.512 73.8518 49.936C74.3798 49.352 75.0758 49.06 75.9398 49.06C76.8038 49.06 77.4958 49.352 78.0158 49.936C78.5438 50.512 78.8078 51.232 78.8078 52.096C78.8078 52.96 78.5438 53.684 78.0158 54.268ZM74.5238 53.692C74.8758 54.124 75.3478 54.34 75.9398 54.34C76.5318 54.34 76.9998 54.124 77.3438 53.692C77.6878 53.252 77.8598 52.72 77.8598 52.096C77.8598 51.472 77.6878 50.944 77.3438 50.512C76.9998 50.08 76.5318 49.864 75.9398 49.864C75.3478 49.864 74.8758 50.084 74.5238 50.524C74.1798 50.956 74.0078 51.48 74.0078 52.096C74.0078 52.72 74.1798 53.252 74.5238 53.692ZM85.375 55H84.475V54.136C83.979 54.808 83.327 55.144 82.519 55.144C81.751 55.144 81.127 54.872 80.647 54.328C80.175 53.776 79.939 53.036 79.939 52.108C79.939 51.188 80.175 50.452 80.647 49.9C81.127 49.34 81.751 49.06 82.519 49.06C83.319 49.06 83.971 49.4 84.475 50.08V46.996H85.375V55ZM82.735 54.34C83.087 54.34 83.423 54.252 83.743 54.076C84.063 53.9 84.307 53.684 84.475 53.428V50.8C84.307 50.536 84.059 50.316 83.731 50.14C83.411 49.956 83.079 49.864 82.735 49.864C82.167 49.864 81.715 50.076 81.379 50.5C81.043 50.916 80.875 51.452 80.875 52.108C80.875 52.764 81.043 53.3 81.379 53.716C81.715 54.132 82.167 54.34 82.735 54.34ZM91.9893 55H91.0893V54.184C90.8493 54.456 90.5453 54.684 90.1773 54.868C89.8173 55.052 89.4333 55.144 89.0253 55.144C87.7933 55.144 87.1773 54.528 87.1773 53.296V49.204H88.0773V53.02C88.0773 53.5 88.1853 53.84 88.4013 54.04C88.6253 54.24 88.9493 54.34 89.3733 54.34C89.7093 54.34 90.0333 54.256 90.3453 54.088C90.6653 53.92 90.9133 53.712 91.0893 53.464V49.204H91.9893V55ZM96.3427 55.144C95.4867 55.144 94.7907 54.856 94.2547 54.28C93.7187 53.696 93.4507 52.968 93.4507 52.096C93.4507 51.224 93.7187 50.5 94.2547 49.924C94.7907 49.348 95.4867 49.06 96.3427 49.06C97.2387 49.06 97.9467 49.396 98.4667 50.068L97.8667 50.62C97.4987 50.116 97.0067 49.864 96.3907 49.864C95.7827 49.864 95.2947 50.072 94.9267 50.488C94.5667 50.904 94.3867 51.44 94.3867 52.096C94.3867 52.752 94.5667 53.292 94.9267 53.716C95.2947 54.132 95.7827 54.34 96.3907 54.34C96.9987 54.34 97.4907 54.088 97.8667 53.584L98.4667 54.136C97.9467 54.808 97.2387 55.144 96.3427 55.144ZM101.192 55.144C100.768 55.144 100.448 55.028 100.232 54.796C100.016 54.564 99.9081 54.228 99.9081 53.788V49.996H98.9481V49.204H99.9081V47.62H100.808V49.204H101.984V49.996H100.808V53.596C100.808 53.82 100.856 54 100.952 54.136C101.056 54.272 101.204 54.34 101.396 54.34C101.66 54.34 101.864 54.26 102.008 54.1L102.272 54.772C102.008 55.02 101.648 55.144 101.192 55.144ZM105.091 55.144C104.107 55.144 103.327 54.84 102.751 54.232L103.219 53.584C103.419 53.816 103.691 54.012 104.035 54.172C104.387 54.332 104.751 54.412 105.127 54.412C105.559 54.412 105.895 54.32 106.135 54.136C106.375 53.952 106.495 53.712 106.495 53.416C106.495 53.16 106.371 52.96 106.123 52.816C105.875 52.664 105.575 52.552 105.223 52.48C104.879 52.4 104.531 52.312 104.179 52.216C103.827 52.112 103.527 51.94 103.279 51.7C103.031 51.452 102.907 51.128 102.907 50.728C102.907 50.256 103.099 49.86 103.483 49.54C103.875 49.22 104.403 49.06 105.067 49.06C105.939 49.06 106.655 49.34 107.215 49.9L106.795 50.524C106.387 50.036 105.811 49.792 105.067 49.792C104.675 49.792 104.363 49.88 104.131 50.056C103.899 50.224 103.783 50.44 103.783 50.704C103.783 50.936 103.907 51.12 104.155 51.256C104.403 51.384 104.699 51.488 105.043 51.568C105.395 51.64 105.747 51.728 106.099 51.832C106.451 51.936 106.751 52.12 106.999 52.384C107.247 52.64 107.371 52.976 107.371 53.392C107.371 53.904 107.171 54.324 106.771 54.652C106.371 54.98 105.811 55.144 105.091 55.144ZM109.782 50.248C109.654 50.376 109.498 50.44 109.314 50.44C109.13 50.44 108.974 50.376 108.846 50.248C108.718 50.12 108.654 49.964 108.654 49.78C108.654 49.596 108.718 49.44 108.846 49.312C108.974 49.184 109.13 49.12 109.314 49.12C109.498 49.12 109.654 49.184 109.782 49.312C109.91 49.44 109.974 49.596 109.974 49.78C109.974 49.964 109.91 50.12 109.782 50.248ZM109.782 54.928C109.654 55.056 109.498 55.12 109.314 55.12C109.13 55.12 108.974 55.056 108.846 54.928C108.718 54.8 108.654 54.644 108.654 54.46C108.654 54.276 108.718 54.12 108.846 53.992C108.974 53.864 109.13 53.8 109.314 53.8C109.498 53.8 109.654 53.864 109.782 53.992C109.91 54.12 109.974 54.276 109.974 54.46C109.974 54.644 109.91 54.8 109.782 54.928ZM117.105 55.144C116.425 55.144 115.821 55.024 115.293 54.784C114.773 54.544 114.369 54.232 114.081 53.848L114.837 52.924C115.093 53.22 115.421 53.456 115.821 53.632C116.221 53.808 116.633 53.896 117.057 53.896C117.577 53.896 117.985 53.788 118.281 53.572C118.577 53.348 118.725 53.048 118.725 52.672C118.725 51.92 118.133 51.544 116.949 51.544C116.413 51.544 116.105 51.548 116.025 51.556V50.296C116.121 50.304 116.429 50.308 116.949 50.308C117.445 50.308 117.841 50.22 118.137 50.044C118.441 49.868 118.593 49.604 118.593 49.252C118.593 48.892 118.441 48.616 118.137 48.424C117.833 48.224 117.445 48.124 116.973 48.124C116.189 48.124 115.501 48.42 114.909 49.012L114.189 48.136C114.901 47.296 115.873 46.876 117.105 46.876C117.977 46.876 118.677 47.072 119.205 47.464C119.733 47.848 119.997 48.372 119.997 49.036C119.997 49.532 119.821 49.944 119.469 50.272C119.125 50.592 118.721 50.792 118.257 50.872C118.713 50.912 119.137 51.104 119.529 51.448C119.921 51.792 120.117 52.248 120.117 52.816C120.117 53.504 119.841 54.064 119.289 54.496C118.745 54.928 118.017 55.144 117.105 55.144ZM123.06 54.544C123.06 54.944 122.956 55.324 122.748 55.684C122.548 56.052 122.276 56.356 121.932 56.596L121.368 56.128C121.568 56.008 121.752 55.84 121.92 55.624C122.088 55.408 122.192 55.2 122.232 55C122.16 55.024 122.092 55.036 122.028 55.036C121.82 55.036 121.648 54.968 121.512 54.832C121.376 54.688 121.308 54.504 121.308 54.28C121.308 54.056 121.388 53.864 121.548 53.704C121.708 53.536 121.9 53.452 122.124 53.452C122.38 53.452 122.6 53.552 122.784 53.752C122.968 53.944 123.06 54.208 123.06 54.544ZM130.021 55H124.225V53.896C125.897 52.632 127.033 51.696 127.633 51.088C128.241 50.472 128.545 49.892 128.545 49.348C128.545 48.956 128.401 48.656 128.113 48.448C127.833 48.232 127.493 48.124 127.093 48.124C126.213 48.124 125.493 48.444 124.933 49.084L124.117 48.16C124.461 47.744 124.893 47.428 125.413 47.212C125.941 46.988 126.493 46.876 127.069 46.876C127.885 46.876 128.573 47.096 129.133 47.536C129.693 47.976 129.973 48.58 129.973 49.348C129.973 50.036 129.685 50.72 129.109 51.4C128.533 52.08 127.653 52.868 126.469 53.764H130.021V55ZM135.898 54.784C135.474 55.024 134.994 55.144 134.458 55.144C133.922 55.144 133.442 55.024 133.018 54.784C132.594 54.544 132.258 54.224 132.01 53.824C131.762 53.424 131.574 52.984 131.446 52.504C131.318 52.024 131.254 51.524 131.254 51.004C131.254 50.484 131.318 49.984 131.446 49.504C131.574 49.024 131.762 48.588 132.01 48.196C132.258 47.796 132.594 47.476 133.018 47.236C133.442 46.996 133.922 46.876 134.458 46.876C134.994 46.876 135.474 46.996 135.898 47.236C136.322 47.476 136.658 47.796 136.906 48.196C137.154 48.588 137.342 49.024 137.47 49.504C137.598 49.984 137.662 50.484 137.662 51.004C137.662 51.524 137.598 52.024 137.47 52.504C137.342 52.984 137.154 53.424 136.906 53.824C136.658 54.224 136.322 54.544 135.898 54.784ZM133.114 53.08C133.402 53.624 133.85 53.896 134.458 53.896C135.066 53.896 135.514 53.624 135.802 53.08C136.09 52.536 136.234 51.844 136.234 51.004C136.234 50.468 136.178 49.992 136.066 49.576C135.962 49.16 135.77 48.816 135.49 48.544C135.218 48.264 134.874 48.124 134.458 48.124C134.042 48.124 133.694 48.264 133.414 48.544C133.142 48.816 132.95 49.16 132.838 49.576C132.734 49.992 132.682 50.468 132.682 51.004C132.682 51.844 132.826 52.536 133.114 53.08ZM143.292 54.784C142.868 55.024 142.388 55.144 141.852 55.144C141.316 55.144 140.836 55.024 140.412 54.784C139.988 54.544 139.652 54.224 139.404 53.824C139.156 53.424 138.968 52.984 138.84 52.504C138.712 52.024 138.648 51.524 138.648 51.004C138.648 50.484 138.712 49.984 138.84 49.504C138.968 49.024 139.156 48.588 139.404 48.196C139.652 47.796 139.988 47.476 140.412 47.236C140.836 46.996 141.316 46.876 141.852 46.876C142.388 46.876 142.868 46.996 143.292 47.236C143.716 47.476 144.052 47.796 144.3 48.196C144.548 48.588 144.736 49.024 144.864 49.504C144.992 49.984 145.056 50.484 145.056 51.004C145.056 51.524 144.992 52.024 144.864 52.504C144.736 52.984 144.548 53.424 144.3 53.824C144.052 54.224 143.716 54.544 143.292 54.784ZM140.508 53.08C140.796 53.624 141.244 53.896 141.852 53.896C142.46 53.896 142.908 53.624 143.196 53.08C143.484 52.536 143.628 51.844 143.628 51.004C143.628 50.468 143.572 49.992 143.46 49.576C143.356 49.16 143.164 48.816 142.884 48.544C142.612 48.264 142.268 48.124 141.852 48.124C141.436 48.124 141.088 48.264 140.808 48.544C140.536 48.816 140.344 49.16 140.232 49.576C140.128 49.992 140.076 50.468 140.076 51.004C140.076 51.844 140.22 52.536 140.508 53.08ZM152.953 55.144C151.817 55.144 150.953 54.848 150.361 54.256C149.777 53.664 149.485 52.86 149.485 51.844V46.996H150.901V51.796C150.901 52.444 151.077 52.956 151.429 53.332C151.789 53.708 152.297 53.896 152.953 53.896C153.609 53.896 154.113 53.708 154.465 53.332C154.817 52.956 154.993 52.444 154.993 51.796V46.996H156.409V51.832C156.409 52.856 156.113 53.664 155.521 54.256C154.937 54.848 154.081 55.144 152.953 55.144ZM163.246 55H161.986V51.376C161.986 50.576 161.598 50.176 160.822 50.176C160.518 50.176 160.234 50.252 159.97 50.404C159.706 50.556 159.494 50.74 159.334 50.956V55H158.074V49.204H159.334V49.996C159.55 49.74 159.838 49.52 160.198 49.336C160.558 49.152 160.95 49.06 161.374 49.06C161.99 49.06 162.454 49.22 162.766 49.54C163.086 49.86 163.246 50.32 163.246 50.92V55ZM165.506 48.496C165.298 48.496 165.114 48.42 164.954 48.268C164.802 48.116 164.726 47.932 164.726 47.716C164.726 47.5 164.802 47.316 164.954 47.164C165.114 47.012 165.298 46.936 165.506 46.936C165.722 46.936 165.906 47.012 166.058 47.164C166.21 47.316 166.286 47.5 166.286 47.716C166.286 47.932 166.21 48.116 166.058 48.268C165.906 48.42 165.722 48.496 165.506 48.496ZM166.142 55H164.882V49.204H166.142V55ZM169.517 55.144C169.029 55.144 168.657 55.016 168.401 54.76C168.153 54.504 168.029 54.136 168.029 53.656V50.308H167.069V49.204H168.029V47.62H169.289V49.204H170.465V50.308H169.289V53.344C169.289 53.552 169.337 53.72 169.433 53.848C169.529 53.968 169.665 54.028 169.841 54.028C170.097 54.028 170.285 53.96 170.405 53.824L170.705 54.772C170.441 55.02 170.045 55.144 169.517 55.144ZM173.589 55.144C172.549 55.144 171.721 54.844 171.105 54.244L171.681 53.332C171.897 53.556 172.189 53.748 172.557 53.908C172.925 54.068 173.289 54.148 173.649 54.148C174.017 54.148 174.297 54.076 174.489 53.932C174.689 53.788 174.789 53.6 174.789 53.368C174.789 53.16 174.669 53 174.429 52.888C174.189 52.768 173.897 52.676 173.553 52.612C173.209 52.54 172.865 52.456 172.521 52.36C172.177 52.256 171.885 52.076 171.645 51.82C171.405 51.564 171.285 51.232 171.285 50.824C171.285 50.328 171.489 49.912 171.897 49.576C172.305 49.232 172.861 49.06 173.565 49.06C174.453 49.06 175.205 49.332 175.821 49.876L175.293 50.764C175.109 50.556 174.865 50.388 174.561 50.26C174.257 50.132 173.929 50.068 173.577 50.068C173.249 50.068 172.985 50.136 172.785 50.272C172.593 50.4 172.497 50.568 172.497 50.776C172.497 50.936 172.581 51.068 172.749 51.172C172.925 51.268 173.141 51.34 173.397 51.388C173.661 51.436 173.945 51.504 174.249 51.592C174.553 51.672 174.833 51.768 175.089 51.88C175.353 51.992 175.569 52.176 175.737 52.432C175.913 52.68 176.001 52.984 176.001 53.344C176.001 53.872 175.789 54.304 175.365 54.64C174.941 54.976 174.349 55.144 173.589 55.144Z" fill="black"/>
<path opacity="0.5" d="M27 207.088V208.084H19.884V210.616H18.996V204.544H19.884V207.088H27ZM26.268 200.031C26.852 200.551 27.144 201.243 27.144 202.107C27.144 202.971 26.852 203.667 26.268 204.195C25.684 204.715 24.96 204.975 24.096 204.975C23.232 204.975 22.512 204.715 21.936 204.195C21.352 203.667 21.06 202.971 21.06 202.107C21.06 201.243 21.352 200.551 21.936 200.031C22.512 199.503 23.232 199.239 24.096 199.239C24.96 199.239 25.684 199.503 26.268 200.031ZM25.692 203.523C26.124 203.171 26.34 202.699 26.34 202.107C26.34 201.515 26.124 201.047 25.692 200.703C25.252 200.359 24.72 200.187 24.096 200.187C23.472 200.187 22.944 200.359 22.512 200.703C22.08 201.047 21.864 201.515 21.864 202.107C21.864 202.699 22.084 203.171 22.524 203.523C22.956 203.867 23.48 204.039 24.096 204.039C24.72 204.039 25.252 203.867 25.692 203.523ZM27.144 196.308C27.144 196.732 27.028 197.052 26.796 197.268C26.564 197.484 26.228 197.592 25.788 197.592H21.996V198.552H21.204V197.592H19.62V196.692H21.204V195.516H21.996V196.692H25.596C25.82 196.692 26 196.644 26.136 196.548C26.272 196.444 26.34 196.296 26.34 196.104C26.34 195.84 26.26 195.636 26.1 195.492L26.772 195.228C27.02 195.492 27.144 195.852 27.144 196.308ZM27 189.721V190.621H26.34C26.876 191.109 27.144 191.749 27.144 192.541C27.144 193.077 26.972 193.549 26.628 193.957C26.284 194.365 25.816 194.569 25.224 194.569C24.616 194.569 24.148 194.369 23.82 193.969C23.484 193.561 23.316 193.085 23.316 192.541C23.316 191.717 23.58 191.077 24.108 190.621H23.064C22.68 190.621 22.38 190.757 22.164 191.029C21.948 191.301 21.84 191.653 21.84 192.085C21.84 192.765 22.108 193.357 22.644 193.861L22.02 194.281C21.38 193.665 21.06 192.893 21.06 191.965C21.06 191.301 21.22 190.761 21.54 190.345C21.86 189.929 22.352 189.721 23.016 189.721H27ZM26.496 192.217C26.496 191.497 26.256 190.965 25.776 190.621H24.684C24.204 190.965 23.964 191.497 23.964 192.217C23.964 192.633 24.084 192.977 24.324 193.249C24.556 193.513 24.86 193.645 25.236 193.645C25.604 193.645 25.908 193.513 26.148 193.249C26.38 192.977 26.496 192.633 26.496 192.217ZM27 187.016V187.916H18.996V187.016H27ZM27 181.095V182.091H18.996V181.095H27ZM27.144 177.792C27.144 178.216 27.028 178.536 26.796 178.752C26.564 178.968 26.228 179.076 25.788 179.076H21.996V180.036H21.204V179.076H19.62L19.62 178.176H21.204V177H21.996V178.176H25.596C25.82 178.176 26 178.128 26.136 178.032C26.272 177.928 26.34 177.78 26.34 177.588C26.34 177.324 26.26 177.12 26.1 176.976L26.772 176.712C27.02 176.976 27.144 177.336 27.144 177.792ZM27.144 173.113C27.144 173.977 26.864 174.685 26.304 175.237C25.736 175.789 25 176.065 24.096 176.065C23.248 176.065 22.532 175.793 21.948 175.249C21.356 174.705 21.06 174.025 21.06 173.209C21.06 172.353 21.356 171.677 21.948 171.181C22.532 170.677 23.272 170.425 24.168 170.425H24.396V175.117C24.964 175.077 25.44 174.869 25.824 174.493C26.208 174.117 26.4 173.629 26.4 173.029C26.4 172.309 26.156 171.713 25.668 171.241L26.256 170.809C26.848 171.401 27.144 172.169 27.144 173.113ZM23.736 171.313C23.24 171.321 22.796 171.489 22.404 171.817C22.004 172.145 21.804 172.613 21.804 173.221C21.804 173.797 22 174.253 22.392 174.589C22.784 174.917 23.232 175.093 23.736 175.117L23.736 171.313ZM27 161.071V161.971H23.064C22.264 161.971 21.864 162.327 21.864 163.039C21.864 163.327 21.952 163.615 22.128 163.903C22.304 164.191 22.512 164.415 22.752 164.575H27V165.475H23.064C22.264 165.475 21.864 165.831 21.864 166.543C21.864 166.823 21.952 167.107 22.128 167.395C22.304 167.675 22.516 167.899 22.764 168.067H27V168.967H21.204V168.067H22.044C21.82 167.923 21.6 167.671 21.384 167.311C21.168 166.951 21.06 166.579 21.06 166.195C21.06 165.771 21.16 165.427 21.36 165.163C21.56 164.899 21.82 164.723 22.14 164.635C21.852 164.459 21.6 164.191 21.384 163.831C21.168 163.471 21.06 163.091 21.06 162.691C21.06 161.611 21.644 161.071 22.812 161.071H27ZM27.144 157.44C27.144 158.424 26.84 159.204 26.232 159.78L25.584 159.312C25.816 159.112 26.012 158.84 26.172 158.496C26.332 158.144 26.412 157.78 26.412 157.404C26.412 156.972 26.32 156.636 26.136 156.396C25.952 156.156 25.712 156.036 25.416 156.036C25.16 156.036 24.96 156.16 24.816 156.408C24.664 156.656 24.552 156.956 24.48 157.308C24.4 157.652 24.312 158 24.216 158.352C24.112 158.704 23.94 159.004 23.7 159.252C23.452 159.5 23.128 159.624 22.728 159.624C22.256 159.624 21.86 159.432 21.54 159.048C21.22 158.656 21.06 158.128 21.06 157.464C21.06 156.592 21.34 155.876 21.9 155.316L22.524 155.736C22.036 156.144 21.792 156.72 21.792 157.464C21.792 157.856 21.88 158.168 22.056 158.4C22.224 158.632 22.44 158.748 22.704 158.748C22.936 158.748 23.12 158.624 23.256 158.376C23.384 158.128 23.488 157.832 23.568 157.488C23.64 157.136 23.728 156.784 23.832 156.432C23.936 156.08 24.12 155.78 24.384 155.532C24.64 155.284 24.976 155.16 25.392 155.16C25.904 155.16 26.324 155.36 26.652 155.76C26.98 156.16 27.144 156.72 27.144 157.44ZM28.968 148.744L29.388 149.284C27.844 150.412 26.076 150.976 24.084 150.976C22.1 150.976 20.332 150.412 18.78 149.284L19.188 148.744C20.028 149.168 20.82 149.484 21.564 149.692C22.308 149.892 23.148 149.992 24.084 149.992C25.02 149.992 25.864 149.892 26.616 149.692C27.36 149.484 28.144 149.168 28.968 148.744ZM20.376 147.183C20.376 147.343 20.32 147.483 20.208 147.603C20.088 147.723 19.944 147.783 19.776 147.783C19.608 147.783 19.464 147.723 19.344 147.603C19.224 147.483 19.164 147.343 19.164 147.183C19.164 147.015 19.224 146.871 19.344 146.751C19.464 146.631 19.608 146.571 19.776 146.571C19.944 146.571 20.088 146.631 20.208 146.751C20.32 146.871 20.376 147.015 20.376 147.183ZM27 146.727V147.627H21.204V146.727H27ZM27 140.12V141.02H23.208C22.72 141.02 22.376 141.132 22.176 141.356C21.968 141.58 21.864 141.9 21.864 142.316C21.864 142.652 21.952 142.98 22.128 143.3C22.304 143.612 22.516 143.856 22.764 144.032H27V144.932H21.204V144.032H22.044C21.78 143.808 21.552 143.508 21.36 143.132C21.16 142.756 21.06 142.368 21.06 141.968C21.06 140.736 21.684 140.12 22.932 140.12H27ZM27 132.997V133.993H20.316L21.672 135.277L21.06 135.877L18.996 133.873V132.997H27ZM27.144 128.39C27.144 128.918 27.024 129.386 26.784 129.794C26.536 130.194 26.208 130.514 25.8 130.754C25.392 130.986 24.952 131.162 24.48 131.282C24.008 131.394 23.516 131.45 23.004 131.45C22.492 131.45 22 131.394 21.528 131.282C21.056 131.162 20.62 130.986 20.22 130.754C19.812 130.514 19.488 130.194 19.248 129.794C19 129.386 18.876 128.918 18.876 128.39C18.876 127.87 19 127.406 19.248 126.998C19.488 126.59 19.812 126.27 20.22 126.038C20.62 125.798 21.056 125.622 21.528 125.51C22 125.39 22.492 125.33 23.004 125.33C23.516 125.33 24.008 125.39 24.48 125.51C24.952 125.622 25.392 125.798 25.8 126.038C26.208 126.27 26.536 126.59 26.784 126.998C27.024 127.406 27.144 127.87 27.144 128.39ZM25.764 129.59C26.092 129.27 26.256 128.87 26.256 128.39C26.256 127.91 26.092 127.51 25.764 127.19C25.428 126.87 25.028 126.65 24.564 126.53C24.1 126.41 23.58 126.35 23.004 126.35C22.428 126.35 21.908 126.41 21.444 126.53C20.98 126.65 20.584 126.87 20.256 127.19C19.928 127.51 19.764 127.91 19.764 128.39C19.764 128.87 19.928 129.27 20.256 129.59C20.584 129.91 20.98 130.13 21.444 130.25C21.908 130.37 22.428 130.43 23.004 130.43C23.58 130.43 24.1 130.37 24.564 130.25C25.028 130.13 25.428 129.91 25.764 129.59ZM27.144 121.043C27.144 121.571 27.024 122.039 26.784 122.447C26.536 122.847 26.208 123.167 25.8 123.407C25.392 123.639 24.952 123.815 24.48 123.935C24.008 124.047 23.516 124.103 23.004 124.103C22.492 124.103 22 124.047 21.528 123.935C21.056 123.815 20.62 123.639 20.22 123.407C19.812 123.167 19.488 122.847 19.248 122.447C19 122.039 18.876 121.571 18.876 121.043C18.876 120.523 19 120.059 19.248 119.651C19.488 119.243 19.812 118.923 20.22 118.691C20.62 118.451 21.056 118.275 21.528 118.163C22 118.043 22.492 117.983 23.004 117.983C23.516 117.983 24.008 118.043 24.48 118.163C24.952 118.275 25.392 118.451 25.8 118.691C26.208 118.923 26.536 119.243 26.784 119.651C27.024 120.059 27.144 120.523 27.144 121.043ZM25.764 122.243C26.092 121.923 26.256 121.523 26.256 121.043C26.256 120.563 26.092 120.163 25.764 119.843C25.428 119.523 25.028 119.303 24.564 119.183C24.1 119.063 23.58 119.003 23.004 119.003C22.428 119.003 21.908 119.063 21.444 119.183C20.98 119.303 20.584 119.523 20.256 119.843C19.928 120.163 19.764 120.563 19.764 121.043C19.764 121.523 19.928 121.923 20.256 122.243C20.584 122.563 20.98 122.783 21.444 122.903C21.908 123.023 22.428 123.083 23.004 123.083C23.58 123.083 24.1 123.023 24.564 122.903C25.028 122.783 25.428 122.563 25.764 122.243ZM27.144 113.695C27.144 114.223 27.024 114.691 26.784 115.099C26.536 115.499 26.208 115.819 25.8 116.059C25.392 116.291 24.952 116.467 24.48 116.587C24.008 116.699 23.516 116.755 23.004 116.755C22.492 116.755 22 116.699 21.528 116.587C21.056 116.467 20.62 116.291 20.22 116.059C19.812 115.819 19.488 115.499 19.248 115.099C19 114.691 18.876 114.223 18.876 113.695C18.876 113.175 19 112.711 19.248 112.303C19.488 111.895 19.812 111.575 20.22 111.343C20.62 111.103 21.056 110.927 21.528 110.815C22 110.695 22.492 110.635 23.004 110.635C23.516 110.635 24.008 110.695 24.48 110.815C24.952 110.927 25.392 111.103 25.8 111.343C26.208 111.575 26.536 111.895 26.784 112.303C27.024 112.711 27.144 113.175 27.144 113.695ZM25.764 114.895C26.092 114.575 26.256 114.175 26.256 113.695C26.256 113.215 26.092 112.815 25.764 112.495C25.428 112.175 25.028 111.955 24.564 111.835C24.1 111.715 23.58 111.655 23.004 111.655C22.428 111.655 21.908 111.715 21.444 111.835C20.98 111.955 20.584 112.175 20.256 112.495C19.928 112.815 19.764 113.215 19.764 113.695C19.764 114.175 19.928 114.575 20.256 114.895C20.584 115.215 20.98 115.435 21.444 115.555C21.908 115.675 22.428 115.735 23.004 115.735C23.58 115.735 24.1 115.675 24.564 115.555C25.028 115.435 25.428 115.215 25.764 114.895ZM27.144 107.284C27.144 108.268 26.84 109.048 26.232 109.624L25.584 109.156C25.816 108.956 26.012 108.684 26.172 108.34C26.332 107.988 26.412 107.624 26.412 107.248C26.412 106.816 26.32 106.48 26.136 106.24C25.952 106 25.712 105.88 25.416 105.88C25.16 105.88 24.96 106.004 24.816 106.252C24.664 106.5 24.552 106.8 24.48 107.152C24.4 107.496 24.312 107.844 24.216 108.196C24.112 108.548 23.94 108.848 23.7 109.096C23.452 109.344 23.128 109.468 22.728 109.468C22.256 109.468 21.86 109.276 21.54 108.892C21.22 108.5 21.06 107.972 21.06 107.308C21.06 106.436 21.34 105.72 21.9 105.16L22.524 105.58C22.036 105.988 21.792 106.564 21.792 107.308C21.792 107.7 21.88 108.012 22.056 108.244C22.224 108.476 22.44 108.592 22.704 108.592C22.936 108.592 23.12 108.468 23.256 108.22C23.384 107.972 23.488 107.676 23.568 107.332C23.64 106.98 23.728 106.628 23.832 106.276C23.936 105.924 24.12 105.624 24.384 105.376C24.64 105.128 24.976 105.004 25.392 105.004C25.904 105.004 26.324 105.204 26.652 105.604C26.98 106.004 27.144 106.564 27.144 107.284ZM29.388 103.697L28.968 104.237C28.144 103.813 27.36 103.497 26.616 103.289C25.864 103.081 25.02 102.977 24.084 102.977C23.14 102.977 22.296 103.081 21.552 103.289C20.808 103.497 20.02 103.813 19.188 104.237L18.78 103.697C20.324 102.561 22.092 101.993 24.084 101.993C26.084 101.993 27.852 102.561 29.388 103.697ZM22.056 100.049V100.493C20.416 100.709 19.54 100.817 19.428 100.817C19.276 100.817 19.148 100.765 19.044 100.661C18.932 100.557 18.876 100.429 18.876 100.277C18.876 100.125 18.932 99.9968 19.044 99.8928C19.148 99.7808 19.276 99.7248 19.428 99.7248L22.056 100.049ZM22.056 98.3088V98.7528C20.416 98.9688 19.54 99.0768 19.428 99.0768C19.276 99.0768 19.148 99.0248 19.044 98.9208C18.932 98.8088 18.876 98.6768 18.876 98.5248C18.876 98.3728 18.932 98.2448 19.044 98.1408C19.148 98.0368 19.276 97.9848 19.428 97.9848L22.056 98.3088Z" fill="black"/>
<line opacity="0.1" x1="48" y1="78.25" x2="465" y2="78.25" stroke="black" stroke-width="1.5" stroke-dasharray="5 5"/>
<line opacity="0.1" x1="48" y1="102.25" x2="465" y2="102.25" stroke="black" stroke-width="1.5" stroke-dasharray="5 5"/>
<line opacity="0.1" x1="48" y1="126.25" x2="465" y2="126.25" stroke="black" stroke-width="1.5" stroke-dasharray="5 5"/>
<line opacity="0.1" x1="48" y1="150.25" x2="465" y2="150.25" stroke="black" stroke-width="1.5" stroke-dasharray="5 5"/>
<line opacity="0.1" x1="48" y1="174.25" x2="465" y2="174.25" stroke="black" stroke-width="1.5" stroke-dasharray="5 5"/>
<line opacity="0.1" x1="48" y1="198.25" x2="465" y2="198.25" stroke="black" stroke-width="1.5" stroke-dasharray="5 5"/>
<line opacity="0.1" x1="48" y1="222.25" x2="465" y2="222.25" stroke="black" stroke-width="1.5" stroke-dasharray="5 5"/>
<path d="M58 143C58 140.791 59.7909 139 62 139H70C72.2091 139 74 140.791 74 143V239H58V143Z" fill="#4F45E4"/>
<path d="M78 179C78 176.791 79.7909 175 82 175H90C92.2091 175 94 176.791 94 179V239H78V179Z" fill="#D6D4F5"/>
<path d="M118 107C118 104.791 119.791 103 122 103H130C132.209 103 134 104.791 134 107V239H118V107Z" fill="#4F45E4"/>
<path d="M138 155C138 152.791 139.791 151 142 151H150C152.209 151 154 152.791 154 155V239H138V155Z" fill="#D6D4F5"/>
<path d="M178 83C178 80.7909 179.791 79 182 79H190C192.209 79 194 80.7909 194 83V239H178V83Z" fill="#4F45E4"/>
<path d="M198 131C198 128.791 199.791 127 202 127H210C212.209 127 214 128.791 214 131V239H198V131Z" fill="#D6D4F5"/>
<path d="M238 142C238 139.791 239.791 138 242 138H250C252.209 138 254 139.791 254 142V239H238V142Z" fill="#4F45E4"/>
<path d="M258 189C258 186.791 259.791 185 262 185H270C272.209 185 274 186.791 274 189V239H258V189Z" fill="#D6D4F5"/>
<path d="M298 96C298 93.7909 299.791 92 302 92H310C312.209 92 314 93.7909 314 96V239H298V96Z" fill="#4F45E4"/>
<path d="M318 116C318 113.791 319.791 112 322 112H330C332.209 112 334 113.791 334 116V239H318V116Z" fill="#D6D4F5"/>
<path d="M358 118C358 115.791 359.791 114 362 114H370C372.209 114 374 115.791 374 118V239H358V118Z" fill="#4F45E4"/>
<path d="M378 142C378 139.791 379.791 138 382 138H390C392.209 138 394 139.791 394 142V239H378V142Z" fill="#D6D4F5"/>
<path d="M418 142C418 139.791 419.791 138 422 138H430C432.209 138 434 139.791 434 142V239H418V142Z" fill="#4F45E4"/>
<path d="M438 194C438 191.791 439.791 190 442 190H450C452.209 190 454 191.791 454 194V239H438V194Z" fill="#D6D4F5"/>
<g opacity="0.5">
<path d="M72.772 258H71.776V251.412L69.052 258H68.644L65.932 251.412V258H64.936V249.996H66.364L68.848 256.02L71.344 249.996H72.772V258ZM79.2111 257.268C78.6911 257.852 77.9991 258.144 77.1351 258.144C76.2711 258.144 75.5751 257.852 75.0471 257.268C74.5271 256.684 74.2671 255.96 74.2671 255.096C74.2671 254.232 74.5271 253.512 75.0471 252.936C75.5751 252.352 76.2711 252.06 77.1351 252.06C77.9991 252.06 78.6911 252.352 79.2111 252.936C79.7391 253.512 80.0031 254.232 80.0031 255.096C80.0031 255.96 79.7391 256.684 79.2111 257.268ZM75.7191 256.692C76.0711 257.124 76.5431 257.34 77.1351 257.34C77.7271 257.34 78.1951 257.124 78.5391 256.692C78.8831 256.252 79.0551 255.72 79.0551 255.096C79.0551 254.472 78.8831 253.944 78.5391 253.512C78.1951 253.08 77.7271 252.864 77.1351 252.864C76.5431 252.864 76.0711 253.084 75.7191 253.524C75.3751 253.956 75.2031 254.48 75.2031 255.096C75.2031 255.72 75.3751 256.252 75.7191 256.692ZM86.2823 258H85.3823V254.208C85.3823 253.72 85.2703 253.376 85.0463 253.176C84.8223 252.968 84.5023 252.864 84.0863 252.864C83.7503 252.864 83.4223 252.952 83.1023 253.128C82.7903 253.304 82.5463 253.516 82.3703 253.764V258H81.4703V252.204H82.3703V253.044C82.5943 252.78 82.8943 252.552 83.2703 252.36C83.6463 252.16 84.0343 252.06 84.4343 252.06C85.6663 252.06 86.2823 252.684 86.2823 253.932V258Z" fill="black"/>
<path d="M126.912 258H125.916V250.884H123.384V249.996H129.456V250.884H126.912V258ZM134.536 258H133.636V257.184C133.396 257.456 133.092 257.684 132.724 257.868C132.364 258.052 131.98 258.144 131.572 258.144C130.34 258.144 129.724 257.528 129.724 256.296V252.204H130.624V256.02C130.624 256.5 130.732 256.84 130.948 257.04C131.172 257.24 131.496 257.34 131.92 257.34C132.256 257.34 132.58 257.256 132.892 257.088C133.212 256.92 133.46 256.712 133.636 256.464V252.204H134.536V258ZM138.95 258.144C138.086 258.144 137.378 257.864 136.826 257.304C136.274 256.736 135.998 256 135.998 255.096C135.998 254.248 136.27 253.532 136.814 252.948C137.358 252.356 138.038 252.06 138.854 252.06C139.71 252.06 140.386 252.356 140.882 252.948C141.386 253.532 141.638 254.272 141.638 255.168V255.396H136.946C136.986 255.964 137.194 256.44 137.57 256.824C137.946 257.208 138.434 257.4 139.034 257.4C139.754 257.4 140.35 257.156 140.822 256.668L141.254 257.256C140.662 257.848 139.894 258.144 138.95 258.144ZM140.75 254.736C140.742 254.24 140.574 253.796 140.246 253.404C139.918 253.004 139.45 252.804 138.842 252.804C138.266 252.804 137.81 253 137.474 253.392C137.146 253.784 136.97 254.232 136.946 254.736H140.75ZM144.931 258.144C143.947 258.144 143.167 257.84 142.591 257.232L143.059 256.584C143.259 256.816 143.531 257.012 143.875 257.172C144.227 257.332 144.591 257.412 144.967 257.412C145.399 257.412 145.735 257.32 145.975 257.136C146.215 256.952 146.335 256.712 146.335 256.416C146.335 256.16 146.211 255.96 145.963 255.816C145.715 255.664 145.415 255.552 145.063 255.48C144.719 255.4 144.371 255.312 144.019 255.216C143.667 255.112 143.367 254.94 143.119 254.7C142.871 254.452 142.747 254.128 142.747 253.728C142.747 253.256 142.939 252.86 143.323 252.54C143.715 252.22 144.243 252.06 144.907 252.06C145.779 252.06 146.495 252.34 147.055 252.9L146.635 253.524C146.227 253.036 145.651 252.792 144.907 252.792C144.515 252.792 144.203 252.88 143.971 253.056C143.739 253.224 143.623 253.44 143.623 253.704C143.623 253.936 143.747 254.12 143.995 254.256C144.243 254.384 144.539 254.488 144.883 254.568C145.235 254.64 145.587 254.728 145.939 254.832C146.291 254.936 146.591 255.12 146.839 255.384C147.087 255.64 147.211 255.976 147.211 256.392C147.211 256.904 147.011 257.324 146.611 257.652C146.211 257.98 145.651 258.144 144.931 258.144Z" fill="black"/>
<path d="M192.136 258H191.056L189.292 251.544L187.528 258H186.448L184.168 249.996H185.272L187.048 256.668L188.884 249.996H189.712L191.548 256.668L193.312 249.996H194.416L192.136 258ZM197.629 258.144C196.765 258.144 196.057 257.864 195.505 257.304C194.953 256.736 194.677 256 194.677 255.096C194.677 254.248 194.949 253.532 195.493 252.948C196.037 252.356 196.717 252.06 197.533 252.06C198.389 252.06 199.065 252.356 199.561 252.948C200.065 253.532 200.317 254.272 200.317 255.168V255.396H195.625C195.665 255.964 195.873 256.44 196.249 256.824C196.625 257.208 197.113 257.4 197.713 257.4C198.433 257.4 199.029 257.156 199.501 256.668L199.933 257.256C199.341 257.848 198.573 258.144 197.629 258.144ZM199.429 254.736C199.421 254.24 199.253 253.796 198.925 253.404C198.597 253.004 198.129 252.804 197.521 252.804C196.945 252.804 196.489 253 196.153 253.392C195.825 253.784 195.649 254.232 195.625 254.736H199.429ZM206.875 258H205.975V257.136C205.479 257.808 204.827 258.144 204.019 258.144C203.251 258.144 202.627 257.872 202.147 257.328C201.675 256.776 201.439 256.036 201.439 255.108C201.439 254.188 201.675 253.452 202.147 252.9C202.627 252.34 203.251 252.06 204.019 252.06C204.819 252.06 205.471 252.4 205.975 253.08V249.996H206.875V258ZM204.235 257.34C204.587 257.34 204.923 257.252 205.243 257.076C205.563 256.9 205.807 256.684 205.975 256.428V253.8C205.807 253.536 205.559 253.316 205.231 253.14C204.911 252.956 204.579 252.864 204.235 252.864C203.667 252.864 203.215 253.076 202.879 253.5C202.543 253.916 202.375 254.452 202.375 255.108C202.375 255.764 202.543 256.3 202.879 256.716C203.215 257.132 203.667 257.34 204.235 257.34Z" fill="black"/>
<path d="M244.912 258H243.916V250.884H241.384V249.996H247.456V250.884H244.912V258ZM253.568 258H252.668V254.184C252.668 253.704 252.556 253.364 252.332 253.164C252.108 252.964 251.784 252.864 251.36 252.864C251.032 252.864 250.708 252.952 250.388 253.128C250.076 253.304 249.828 253.516 249.644 253.764V258H248.744V249.996H249.644V253.044C249.868 252.78 250.168 252.552 250.544 252.36C250.92 252.16 251.312 252.06 251.72 252.06C252.952 252.06 253.568 252.676 253.568 253.908V258ZM260.177 258H259.277V257.184C259.037 257.456 258.733 257.684 258.365 257.868C258.005 258.052 257.621 258.144 257.213 258.144C255.981 258.144 255.365 257.528 255.365 256.296V252.204H256.265V256.02C256.265 256.5 256.373 256.84 256.589 257.04C256.813 257.24 257.137 257.34 257.561 257.34C257.897 257.34 258.221 257.256 258.533 257.088C258.853 256.92 259.101 256.712 259.277 256.464V252.204H260.177V258ZM262.874 258H261.974V252.204H262.874V253.14C263.41 252.436 264.054 252.084 264.806 252.084V253.008C264.694 252.984 264.574 252.972 264.446 252.972C264.174 252.972 263.878 253.068 263.558 253.26C263.238 253.452 263.01 253.664 262.874 253.896V258ZM267.771 258.144C266.787 258.144 266.007 257.84 265.431 257.232L265.899 256.584C266.099 256.816 266.371 257.012 266.715 257.172C267.067 257.332 267.431 257.412 267.807 257.412C268.239 257.412 268.575 257.32 268.815 257.136C269.055 256.952 269.175 256.712 269.175 256.416C269.175 256.16 269.051 255.96 268.803 255.816C268.555 255.664 268.255 255.552 267.903 255.48C267.559 255.4 267.211 255.312 266.859 255.216C266.507 255.112 266.207 254.94 265.959 254.7C265.711 254.452 265.587 254.128 265.587 253.728C265.587 253.256 265.779 252.86 266.163 252.54C266.555 252.22 267.083 252.06 267.747 252.06C268.619 252.06 269.335 252.34 269.895 252.9L269.475 253.524C269.067 253.036 268.491 252.792 267.747 252.792C267.355 252.792 267.043 252.88 266.811 253.056C266.579 253.224 266.463 253.44 266.463 253.704C266.463 253.936 266.587 254.12 266.835 254.256C267.083 254.384 267.379 254.488 267.723 254.568C268.075 254.64 268.427 254.728 268.779 254.832C269.131 254.936 269.431 255.12 269.679 255.384C269.927 255.64 270.051 255.976 270.051 256.392C270.051 256.904 269.851 257.324 269.451 257.652C269.051 257.98 268.491 258.144 267.771 258.144Z" fill="black"/>
<path d="M310.932 258H309.936V249.996H315.18V250.884H310.932V253.464H315.096V254.352H310.932V258ZM317.398 258H316.498V252.204H317.398V253.14C317.934 252.436 318.578 252.084 319.33 252.084V253.008C319.218 252.984 319.098 252.972 318.97 252.972C318.698 252.972 318.402 253.068 318.082 253.26C317.762 253.452 317.534 253.664 317.398 253.896V258ZM320.903 251.376C320.743 251.376 320.603 251.32 320.483 251.208C320.363 251.088 320.303 250.944 320.303 250.776C320.303 250.608 320.363 250.464 320.483 250.344C320.603 250.224 320.743 250.164 320.903 250.164C321.071 250.164 321.215 250.224 321.335 250.344C321.455 250.464 321.515 250.608 321.515 250.776C321.515 250.944 321.455 251.088 321.335 251.208C321.215 251.32 321.071 251.376 320.903 251.376ZM321.359 258H320.459V252.204H321.359V258Z" fill="black"/>
<path d="M370.528 258.144C369.232 258.144 368.208 257.72 367.456 256.872L368.044 256.116C368.724 256.876 369.564 257.256 370.564 257.256C371.212 257.256 371.688 257.12 371.992 256.848C372.296 256.568 372.448 256.244 372.448 255.876C372.448 255.596 372.36 255.36 372.184 255.168C372.008 254.976 371.78 254.828 371.5 254.724C371.228 254.612 370.92 254.512 370.576 254.424C370.24 254.336 369.904 254.24 369.568 254.136C369.232 254.024 368.924 253.892 368.644 253.74C368.372 253.588 368.148 253.372 367.972 253.092C367.796 252.812 367.708 252.48 367.708 252.096C367.708 251.44 367.968 250.908 368.488 250.5C369.008 250.084 369.664 249.876 370.456 249.876C371.648 249.876 372.596 250.248 373.3 250.992L372.7 251.724C372.116 251.084 371.344 250.764 370.384 250.764C369.904 250.764 369.508 250.884 369.196 251.124C368.892 251.356 368.74 251.66 368.74 252.036C368.74 252.316 368.856 252.548 369.088 252.732C369.328 252.916 369.62 253.052 369.964 253.14C370.316 253.228 370.696 253.34 371.104 253.476C371.52 253.604 371.9 253.744 372.244 253.896C372.596 254.04 372.888 254.276 373.12 254.604C373.36 254.932 373.48 255.328 373.48 255.792C373.48 256.448 373.236 257.004 372.748 257.46C372.268 257.916 371.528 258.144 370.528 258.144ZM379.455 258H378.555V257.34C378.067 257.876 377.427 258.144 376.635 258.144C376.099 258.144 375.627 257.972 375.219 257.628C374.811 257.284 374.607 256.816 374.607 256.224C374.607 255.616 374.807 255.148 375.207 254.82C375.615 254.484 376.091 254.316 376.635 254.316C377.459 254.316 378.099 254.58 378.555 255.108V254.064C378.555 253.68 378.419 253.38 378.147 253.164C377.875 252.948 377.523 252.84 377.091 252.84C376.411 252.84 375.819 253.108 375.315 253.644L374.895 253.02C375.511 252.38 376.283 252.06 377.211 252.06C377.875 252.06 378.415 252.22 378.831 252.54C379.247 252.86 379.455 253.352 379.455 254.016V258ZM376.959 257.496C377.679 257.496 378.211 257.256 378.555 256.776V255.684C378.211 255.204 377.679 254.964 376.959 254.964C376.543 254.964 376.199 255.084 375.927 255.324C375.663 255.556 375.531 255.86 375.531 256.236C375.531 256.604 375.663 256.908 375.927 257.148C376.199 257.38 376.543 257.496 376.959 257.496ZM382.723 258.144C382.299 258.144 381.979 258.028 381.763 257.796C381.547 257.564 381.439 257.228 381.439 256.788V252.996H380.479V252.204H381.439V250.62H382.339V252.204H383.515V252.996H382.339V256.596C382.339 256.82 382.387 257 382.483 257.136C382.587 257.272 382.735 257.34 382.927 257.34C383.191 257.34 383.395 257.26 383.539 257.1L383.803 257.772C383.539 258.02 383.179 258.144 382.723 258.144Z" fill="black"/>
<path d="M428.528 258.144C427.232 258.144 426.208 257.72 425.456 256.872L426.044 256.116C426.724 256.876 427.564 257.256 428.564 257.256C429.212 257.256 429.688 257.12 429.992 256.848C430.296 256.568 430.448 256.244 430.448 255.876C430.448 255.596 430.36 255.36 430.184 255.168C430.008 254.976 429.78 254.828 429.5 254.724C429.228 254.612 428.92 254.512 428.576 254.424C428.24 254.336 427.904 254.24 427.568 254.136C427.232 254.024 426.924 253.892 426.644 253.74C426.372 253.588 426.148 253.372 425.972 253.092C425.796 252.812 425.708 252.48 425.708 252.096C425.708 251.44 425.968 250.908 426.488 250.5C427.008 250.084 427.664 249.876 428.456 249.876C429.648 249.876 430.596 250.248 431.3 250.992L430.7 251.724C430.116 251.084 429.344 250.764 428.384 250.764C427.904 250.764 427.508 250.884 427.196 251.124C426.892 251.356 426.74 251.66 426.74 252.036C426.74 252.316 426.856 252.548 427.088 252.732C427.328 252.916 427.62 253.052 427.964 253.14C428.316 253.228 428.696 253.34 429.104 253.476C429.52 253.604 429.9 253.744 430.244 253.896C430.596 254.04 430.888 254.276 431.12 254.604C431.36 254.932 431.48 255.328 431.48 255.792C431.48 256.448 431.236 257.004 430.748 257.46C430.268 257.916 429.528 258.144 428.528 258.144ZM437.743 258H436.843V257.184C436.603 257.456 436.299 257.684 435.931 257.868C435.571 258.052 435.187 258.144 434.779 258.144C433.547 258.144 432.931 257.528 432.931 256.296V252.204H433.831V256.02C433.831 256.5 433.939 256.84 434.155 257.04C434.379 257.24 434.703 257.34 435.127 257.34C435.463 257.34 435.787 257.256 436.099 257.088C436.419 256.92 436.667 256.712 436.843 256.464V252.204H437.743V258ZM444.353 258H443.453V254.208C443.453 253.72 443.341 253.376 443.117 253.176C442.893 252.968 442.573 252.864 442.157 252.864C441.821 252.864 441.493 252.952 441.173 253.128C440.861 253.304 440.617 253.516 440.441 253.764V258H439.541V252.204H440.441V253.044C440.665 252.78 440.965 252.552 441.341 252.36C441.717 252.16 442.105 252.06 442.505 252.06C443.737 252.06 444.353 252.684 444.353 253.932V258Z" fill="black"/>
</g>
<defs>
<filter id="filter0_d_1_1103" x="380.897" y="15.5312" width="85.6042" height="37.1875" filterUnits="userSpaceOnUse" color-interpolation-filters="sRGB">
<feFlood flood-opacity="0" result="BackgroundImageFix"/>
<feColorMatrix in="SourceAlpha" type="matrix" values="0 0 0 0 0 0 0 0 0 0 0 0 0 0 0 0 0 0 127 0" result="hardAlpha"/>
<feOffset/>
<feGaussianBlur stdDeviation="2.73438"/>
<feComposite in2="hardAlpha" operator="out"/>
<feColorMatrix type="matrix" values="0 0 0 0 0 0 0 0 0 0 0 0 0 0 0 0 0 0 0.1 0"/>
<feBlend mode="normal" in2="BackgroundImageFix" result="effect1_dropShadow_1_1103"/>
<feBlend mode="normal" in="SourceGraphic" in2="effect1_dropShadow_1_1103" result="shape"/>
</filter>
</defs>
</svg>
