<svg width="16" height="16" viewBox="0 0 16 16" fill="none" xmlns="http://www.w3.org/2000/svg">
<path d="M6.00001 3.33301C5.82319 3.33301 5.65363 3.40325 5.5286 3.52828C5.40358 3.6533 5.33334 3.82287 5.33334 3.99968C5.33334 4.17649 5.40358 4.34606 5.5286 4.47109C5.65363 4.59611 5.82319 4.66635 6.00001 4.66635C6.17682 4.66635 6.34639 4.59611 6.47141 4.47109C6.59643 4.34606 6.66667 4.17649 6.66667 3.99968C6.66667 3.82287 6.59643 3.6533 6.47141 3.52828C6.34639 3.40325 6.17682 3.33301 6.00001 3.33301ZM4.11334 3.33301C4.25107 2.94266 4.5065 2.60464 4.8444 2.36554C5.18231 2.12644 5.58606 1.99805 6.00001 1.99805C6.41395 1.99805 6.8177 2.12644 7.15561 2.36554C7.49351 2.60464 7.74894 2.94266 7.88667 3.33301H12.6667C12.8435 3.33301 13.0131 3.40325 13.1381 3.52828C13.2631 3.6533 13.3333 3.82287 13.3333 3.99968C13.3333 4.17649 13.2631 4.34606 13.1381 4.47109C13.0131 4.59611 12.8435 4.66635 12.6667 4.66635H7.88667C7.74894 5.0567 7.49351 5.39473 7.15561 5.63382C6.8177 5.87292 6.41395 6.00131 6.00001 6.00131C5.58606 6.00131 5.18231 5.87292 4.8444 5.63382C4.5065 5.39473 4.25107 5.0567 4.11334 4.66635H3.33334C3.15653 4.66635 2.98696 4.59611 2.86193 4.47109C2.73691 4.34606 2.66667 4.17649 2.66667 3.99968C2.66667 3.82287 2.73691 3.6533 2.86193 3.52828C2.98696 3.40325 3.15653 3.33301 3.33334 3.33301H4.11334ZM10 7.33301C9.82319 7.33301 9.65363 7.40325 9.5286 7.52828C9.40358 7.6533 9.33334 7.82287 9.33334 7.99968C9.33334 8.17649 9.40358 8.34606 9.5286 8.47108C9.65363 8.59611 9.82319 8.66635 10 8.66635C10.1768 8.66635 10.3464 8.59611 10.4714 8.47108C10.5964 8.34606 10.6667 8.17649 10.6667 7.99968C10.6667 7.82287 10.5964 7.6533 10.4714 7.52828C10.3464 7.40325 10.1768 7.33301 10 7.33301ZM8.11334 7.33301C8.25107 6.94266 8.5065 6.60464 8.84441 6.36554C9.18231 6.12644 9.58606 5.99805 10 5.99805C10.4139 5.99805 10.8177 6.12644 11.1556 6.36554C11.4935 6.60464 11.7489 6.94266 11.8867 7.33301H12.6667C12.8435 7.33301 13.0131 7.40325 13.1381 7.52828C13.2631 7.6533 13.3333 7.82287 13.3333 7.99968C13.3333 8.17649 13.2631 8.34606 13.1381 8.47108C13.0131 8.59611 12.8435 8.66635 12.6667 8.66635H11.8867C11.7489 9.0567 11.4935 9.39472 11.1556 9.63382C10.8177 9.87292 10.4139 10.0013 10 10.0013C9.58606 10.0013 9.18231 9.87292 8.84441 9.63382C8.5065 9.39472 8.25107 9.0567 8.11334 8.66635H3.33334C3.15653 8.66635 2.98696 8.59611 2.86193 8.47108C2.73691 8.34606 2.66667 8.17649 2.66667 7.99968C2.66667 7.82287 2.73691 7.6533 2.86193 7.52828C2.98696 7.40325 3.15653 7.33301 3.33334 7.33301H8.11334ZM6.00001 11.333C5.82319 11.333 5.65363 11.4033 5.5286 11.5283C5.40358 11.6533 5.33334 11.8229 5.33334 11.9997C5.33334 12.1765 5.40358 12.3461 5.5286 12.4711C5.65363 12.5961 5.82319 12.6663 6.00001 12.6663C6.17682 12.6663 6.34639 12.5961 6.47141 12.4711C6.59643 12.3461 6.66667 12.1765 6.66667 11.9997C6.66667 11.8229 6.59643 11.6533 6.47141 11.5283C6.34639 11.4033 6.17682 11.333 6.00001 11.333ZM4.11334 11.333C4.25107 10.9427 4.5065 10.6046 4.8444 10.3655C5.18231 10.1264 5.58606 9.99805 6.00001 9.99805C6.41395 9.99805 6.8177 10.1264 7.15561 10.3655C7.49351 10.6046 7.74894 10.9427 7.88667 11.333H12.6667C12.8435 11.333 13.0131 11.4033 13.1381 11.5283C13.2631 11.6533 13.3333 11.8229 13.3333 11.9997C13.3333 12.1765 13.2631 12.3461 13.1381 12.4711C13.0131 12.5961 12.8435 12.6663 12.6667 12.6663H7.88667C7.74894 13.0567 7.49351 13.3947 7.15561 13.6338C6.8177 13.8729 6.41395 14.0013 6.00001 14.0013C5.58606 14.0013 5.18231 13.8729 4.8444 13.6338C4.5065 13.3947 4.25107 13.0567 4.11334 12.6663H3.33334C3.15653 12.6663 2.98696 12.5961 2.86193 12.4711C2.73691 12.3461 2.66667 12.1765 2.66667 11.9997C2.66667 11.8229 2.73691 11.6533 2.86193 11.5283C2.98696 11.4033 3.15653 11.333 3.33334 11.333H4.11334Z" fill="black"/>
</svg>
