<svg width="25.71" height="25.71" viewBox="0 0 26 26" fill="none" xmlns="http://www.w3.org/2000/svg">
<path d="M8.98212 4.96429V21.0357H4.16069C3.94757 21.0357 3.74318 20.9511 3.59248 20.8004C3.44178 20.6497 3.35712 20.4453 3.35712 20.2322V5.76787C3.35712 5.55475 3.44178 5.35035 3.59248 5.19966C3.74318 5.04896 3.94757 4.96429 4.16069 4.96429H8.98212Z" fill="#1C1C1C" fill-opacity="0.1"/>
<path d="M21.8393 4.16071H4.16073C3.73449 4.16071 3.32571 4.33003 3.02431 4.63143C2.72291 4.93282 2.55359 5.34161 2.55359 5.76785V20.2321C2.55359 20.6584 2.72291 21.0672 3.02431 21.3686C3.32571 21.67 3.73449 21.8393 4.16073 21.8393H21.8393C22.2655 21.8393 22.6743 21.67 22.9757 21.3686C23.2771 21.0672 23.4464 20.6584 23.4464 20.2321V5.76785C23.4464 5.34161 23.2771 4.93282 22.9757 4.63143C22.6743 4.33003 22.2655 4.16071 21.8393 4.16071ZM4.16073 15.4107H5.76787C5.98099 15.4107 6.18539 15.326 6.33609 15.1753C6.48678 15.0246 6.57145 14.8203 6.57145 14.6071C6.57145 14.394 6.48678 14.1896 6.33609 14.0389C6.18539 13.8882 5.98099 13.8036 5.76787 13.8036H4.16073V12.1964H5.76787C5.98099 12.1964 6.18539 12.1118 6.33609 11.9611C6.48678 11.8104 6.57145 11.606 6.57145 11.3928C6.57145 11.1797 6.48678 10.9753 6.33609 10.8246C6.18539 10.6739 5.98099 10.5893 5.76787 10.5893H4.16073V8.98213H5.76787C5.98099 8.98213 6.18539 8.89747 6.33609 8.74677C6.48678 8.59607 6.57145 8.39168 6.57145 8.17856C6.57145 7.96544 6.48678 7.76105 6.33609 7.61035C6.18539 7.45965 5.98099 7.37499 5.76787 7.37499H4.16073V5.76785H8.17859V20.2321H4.16073V15.4107ZM21.8393 20.2321H9.78573V5.76785H21.8393V20.2321Z" fill="white"/>
</svg>
