<svg width="37" height="34" viewBox="0 0 37 34" fill="none" xmlns="http://www.w3.org/2000/svg">
<rect x="0.169739" width="35.9245" height="34" rx="8" fill="#4F45E4" fill-opacity="0.1"/>
<path d="M12.849 16C12.849 15.4696 13.0716 14.9609 13.4679 14.5858C13.8642 14.2107 14.4017 14 14.9622 14H25.5282C26.0887 14 26.6262 14.2107 27.0225 14.5858C27.4188 14.9609 27.6414 15.4696 27.6414 16V22C27.6414 22.5304 27.4188 23.0391 27.0225 23.4142C26.6262 23.7893 26.0887 24 25.5282 24H14.9622C14.4017 24 13.8642 23.7893 13.4679 23.4142C13.0716 23.0391 12.849 22.5304 12.849 22V16Z" stroke="#0064BE" stroke-width="2" stroke-linecap="round" stroke-linejoin="round"/>
<path d="M23.415 14V12C23.415 11.4696 23.1924 10.9609 22.7961 10.5858C22.3998 10.2107 21.8623 10 21.3018 10H10.7358C10.1753 10 9.63783 10.2107 9.24153 10.5858C8.84522 10.9609 8.62258 11.4696 8.62258 12V18C8.62258 18.5304 8.84522 19.0391 9.24153 19.4142C9.63783 19.7893 10.1753 20 10.7358 20H12.849M18.132 19C18.132 19.5304 18.3547 20.0391 18.751 20.4142C19.1473 20.7893 19.6848 21 20.2452 21C20.8057 21 21.3432 20.7893 21.7395 20.4142C22.1358 20.0391 22.3584 19.5304 22.3584 19C22.3584 18.4696 22.1358 17.9609 21.7395 17.5858C21.3432 17.2107 20.8057 17 20.2452 17C19.6848 17 19.1473 17.2107 18.751 17.5858C18.3547 17.9609 18.132 18.4696 18.132 19Z" stroke="#0064BE" stroke-width="2" stroke-linecap="round" stroke-linejoin="round"/>
</svg>
