<svg width="34" height="34" viewBox="0 0 34 34" fill="none" xmlns="http://www.w3.org/2000/svg">
<rect width="34" height="34" rx="8" fill="#05BF8F" fill-opacity="0.1"/>
<path d="M13.4 26C11.8833 26 10.604 25.4793 9.562 24.438C8.52 23.3967 7.99933 22.1173 8 20.6C8 19.9667 8.10833 19.35 8.325 18.75C8.54167 18.15 8.85 17.6083 9.25 17.125L12.8 12.85L11.1 9.45C10.9333 9.11667 10.946 8.79167 11.138 8.475C11.33 8.15833 11.6173 8 12 8H22C22.3833 8 22.671 8.15833 22.863 8.475C23.055 8.79167 23.0673 9.11667 22.9 9.45L21.2 12.85L24.75 17.125C25.15 17.6083 25.4583 18.15 25.675 18.75C25.8917 19.35 26 19.9667 26 20.6C26 22.1167 25.475 23.396 24.425 24.438C23.375 25.48 22.1 26.0007 20.6 26H13.4ZM17 21C16.45 21 15.9793 20.8043 15.588 20.413C15.1967 20.0217 15.0007 19.5507 15 19C14.9993 18.4493 15.1953 17.9787 15.588 17.588C15.9807 17.1973 16.4513 17.0013 17 17C17.5487 16.9987 18.0197 17.1947 18.413 17.588C18.8063 17.9813 19.002 18.452 19 19C18.998 19.548 18.8023 20.019 18.413 20.413C18.0237 20.807 17.5527 21.0027 17 21ZM14.625 12H19.375L20.375 10H13.625L14.625 12ZM13.4 24H20.6C21.55 24 22.3543 23.671 23.013 23.013C23.6717 22.355 24.0007 21.5507 24 20.6C24 20.2 23.929 19.8127 23.787 19.438C23.645 19.0633 23.4493 18.7257 23.2 18.425L19.525 14H14.5L10.8 18.4C10.55 18.7 10.3543 19.0417 10.213 19.425C10.0717 19.8083 10.0007 20.2 10 20.6C10 21.55 10.3293 22.3543 10.988 23.013C11.6467 23.6717 12.4507 24.0007 13.4 24Z" fill="#05BF8F"/>
</svg>
