<svg width="34" height="34" viewBox="0 0 34 34" fill="none" xmlns="http://www.w3.org/2000/svg">
<rect width="34" height="34" rx="8" fill="#7A21EB" fill-opacity="0.1"/>
<path d="M9.5 25.25C9.30189 25.2474 9.11263 25.1676 8.97253 25.0275C8.83244 24.8874 8.75259 24.6981 8.75 24.5V9.5C8.75 9.30109 8.82902 9.11032 8.96967 8.96967C9.11032 8.82902 9.30109 8.75 9.5 8.75C9.69891 8.75 9.88968 8.82902 10.0303 8.96967C10.171 9.11032 10.25 9.30109 10.25 9.5V24.5C10.2474 24.6981 10.1676 24.8874 10.0275 25.0275C9.88737 25.1676 9.69811 25.2474 9.5 25.25Z" fill="#7A21EB"/>
<path d="M24.5 25.25H9.5C9.30109 25.25 9.11032 25.171 8.96967 25.0303C8.82902 24.8897 8.75 24.6989 8.75 24.5C8.75 24.3011 8.82902 24.1103 8.96967 23.9697C9.11032 23.829 9.30109 23.75 9.5 23.75H24.5C24.6989 23.75 24.8897 23.829 25.0303 23.9697C25.171 24.1103 25.25 24.3011 25.25 24.5C25.25 24.6989 25.171 24.8897 25.0303 25.0303C24.8897 25.171 24.6989 25.25 24.5 25.25ZM19 19.75C18.9015 19.7505 18.8038 19.7312 18.7128 19.6935C18.6218 19.6557 18.5392 19.6001 18.47 19.53L16 17.06L13.53 19.53C13.3878 19.6625 13.1998 19.7346 13.0055 19.7312C12.8112 19.7277 12.6258 19.649 12.4884 19.5116C12.351 19.3742 12.2723 19.1888 12.2688 18.9945C12.2654 18.8002 12.3375 18.6122 12.47 18.47L15.47 15.47C15.6106 15.3295 15.8012 15.2507 16 15.2507C16.1988 15.2507 16.3894 15.3295 16.53 15.47L19 17.94L22.47 14.47C22.6122 14.3375 22.8002 14.2654 22.9945 14.2688C23.1888 14.2723 23.3742 14.351 23.5116 14.4884C23.649 14.6258 23.7277 14.8112 23.7312 15.0055C23.7346 15.1998 23.6625 15.3878 23.53 15.53L19.53 19.53C19.4608 19.6001 19.3782 19.6557 19.2872 19.6935C19.1962 19.7312 19.0985 19.7505 19 19.75Z" fill="#7A21EB"/>
<path d="M23.5 18.84C23.3019 18.8374 23.1126 18.7576 22.9725 18.6175C22.8324 18.4774 22.7526 18.2881 22.75 18.09V15.25H20C19.8011 15.25 19.6103 15.171 19.4697 15.0303C19.329 14.8897 19.25 14.6989 19.25 14.5C19.25 14.3011 19.329 14.1103 19.4697 13.9697C19.6103 13.829 19.8011 13.75 20 13.75H23.5C23.6981 13.7526 23.8874 13.8324 24.0275 13.9725C24.1676 14.1126 24.2474 14.3019 24.25 14.5V18.09C24.2474 18.2881 24.1676 18.4774 24.0275 18.6175C23.8874 18.7576 23.6981 18.8374 23.5 18.84Z" fill="#7A21EB"/>
</svg>
