<svg width="12" height="12" viewBox="0 0 12 12" fill="none" xmlns="http://www.w3.org/2000/svg">
<circle cx="6" cy="6" r="6" fill="#C6D7E7"/>
<circle cx="6" cy="6" r="4.3" fill="#4F45E4" stroke="white" stroke-width="0.6"/>
<g clip-path="url(#clip0_1_1370)">
<path d="M7.48152 4.33537L7.49919 4.33437L7.52085 4.33571L7.53585 4.33837L7.55635 4.34421L7.57419 4.35187L7.59085 4.36137L7.60585 4.37254L7.61952 4.38504L7.62819 4.39487L7.64185 4.41421L7.65052 4.43021C7.6583 4.44687 7.6633 4.46443 7.66552 4.48287L7.66635 4.50054C7.66635 4.5131 7.66502 4.52532 7.66235 4.53721L7.65652 4.55771L6.56785 7.57054C6.54722 7.61547 6.51412 7.65353 6.47249 7.68021C6.43087 7.70688 6.38246 7.72106 6.33302 7.72104C6.2885 7.72113 6.24471 7.70972 6.20591 7.6879C6.1671 7.66609 6.13458 7.63462 6.11152 7.59654L6.10069 7.57537L5.54202 6.45837L4.43035 5.90237C4.38922 5.88356 4.35375 5.85428 4.32748 5.81746C4.30122 5.78063 4.28508 5.73756 4.28069 5.69254L4.27969 5.66771C4.27969 5.57437 4.32985 5.48904 4.41985 5.43937L4.44319 5.42771L7.44602 4.34337L7.46369 4.33837L7.48152 4.33537Z" fill="white"/>
</g>
<defs>
<clipPath id="clip0_1_1370">
<rect width="4" height="4" fill="white" transform="translate(4 4)"/>
</clipPath>
</defs>
</svg>
