<svg width="12.57" height="13.33" viewBox="0 0 15 15" fill="none" xmlns="http://www.w3.org/2000/svg">
<path d="M7.28546 9.66666C8.39003 9.66666 9.28546 8.77123 9.28546 7.66666C9.28546 6.56209 8.39003 5.66666 7.28546 5.66666C6.18089 5.66666 5.28546 6.56209 5.28546 7.66666C5.28546 8.77123 6.18089 9.66666 7.28546 9.66666Z" stroke="black"/>
<path d="M8.46212 1.10133C8.21746 1 7.90679 1 7.28546 1C6.66412 1 6.35346 1 6.10879 1.10133C5.94691 1.16834 5.79982 1.2666 5.67594 1.39048C5.55205 1.51437 5.4538 1.66145 5.38679 1.82333C5.32546 1.972 5.30079 2.146 5.29146 2.39867C5.28712 2.58129 5.23653 2.75982 5.14442 2.91757C5.05231 3.07532 4.92169 3.20713 4.76479 3.30067C4.60533 3.38985 4.42585 3.43712 4.24314 3.43805C4.06044 3.43898 3.88049 3.39355 3.72012 3.306C3.49612 3.18733 3.33412 3.122 3.17346 3.10067C2.823 3.05458 2.46859 3.14954 2.18812 3.36467C1.97879 3.52667 1.82279 3.79533 1.51212 4.33333C1.20146 4.87133 1.04546 5.14 1.01146 5.40333C0.988547 5.57697 1.00007 5.75342 1.04537 5.9226C1.09067 6.09178 1.16885 6.25038 1.27546 6.38933C1.37412 6.51733 1.51212 6.62467 1.72612 6.75933C2.04146 6.95733 2.24412 7.29467 2.24412 7.66667C2.24412 8.03867 2.04146 8.376 1.72612 8.57333C1.51212 8.70867 1.37346 8.816 1.27546 8.944C1.16885 9.08296 1.09067 9.24156 1.04537 9.41074C1.00007 9.57992 0.988547 9.75636 1.01146 9.93C1.04612 10.1927 1.20146 10.462 1.51146 11C1.82279 11.538 1.97812 11.8067 2.18812 11.9687C2.32708 12.0753 2.48568 12.1535 2.65486 12.1988C2.82404 12.2441 3.00049 12.2556 3.17412 12.2327C3.33412 12.2113 3.49612 12.146 3.72012 12.0273C3.88049 11.9398 4.06044 11.8944 4.24314 11.8953C4.42585 11.8962 4.60533 11.9435 4.76479 12.0327C5.08679 12.2193 5.27812 12.5627 5.29146 12.9347C5.30079 13.188 5.32479 13.3613 5.38679 13.51C5.4538 13.6719 5.55205 13.819 5.67594 13.9428C5.79982 14.0667 5.94691 14.165 6.10879 14.232C6.35346 14.3333 6.66412 14.3333 7.28546 14.3333C7.90679 14.3333 8.21746 14.3333 8.46212 14.232C8.624 14.165 8.77109 14.0667 8.89497 13.9428C9.01886 13.819 9.11711 13.6719 9.18412 13.51C9.24546 13.3613 9.27012 13.188 9.27946 12.9347C9.29279 12.5627 9.48412 12.2187 9.80612 12.0327C9.96558 11.9435 10.1451 11.8962 10.3278 11.8953C10.5105 11.8944 10.6904 11.9398 10.8508 12.0273C11.0748 12.146 11.2368 12.2113 11.3968 12.2327C11.5704 12.2556 11.7469 12.2441 11.9161 12.1988C12.0852 12.1535 12.2438 12.0753 12.3828 11.9687C12.5928 11.8073 12.7481 11.538 13.0588 11C13.3695 10.462 13.5255 10.1933 13.5595 9.93C13.5824 9.75636 13.5708 9.57992 13.5255 9.41074C13.4802 9.24156 13.4021 9.08296 13.2955 8.944C13.1968 8.816 13.0588 8.70867 12.8448 8.574C12.6887 8.47893 12.5594 8.34583 12.4688 8.18714C12.3782 8.02845 12.3293 7.84937 12.3268 7.66667C12.3268 7.29467 12.5295 6.95733 12.8448 6.76C13.0588 6.62467 13.1975 6.51733 13.2955 6.38933C13.4021 6.25038 13.4802 6.09178 13.5255 5.9226C13.5708 5.75342 13.5824 5.57697 13.5595 5.40333C13.5248 5.14067 13.3695 4.87133 13.0595 4.33333C12.7481 3.79533 12.5928 3.52667 12.3828 3.36467C12.2438 3.25806 12.0852 3.17988 11.9161 3.13458C11.7469 3.08928 11.5704 3.07776 11.3968 3.10067C11.2368 3.122 11.0748 3.18733 10.8501 3.306C10.6898 3.39343 10.51 3.4388 10.3274 3.43786C10.1449 3.43693 9.9655 3.38973 9.80612 3.30067C9.64922 3.20713 9.5186 3.07532 9.42649 2.91757C9.33439 2.75982 9.2838 2.58129 9.27946 2.39867C9.27012 2.14533 9.24612 1.972 9.18412 1.82333C9.11711 1.66145 9.01886 1.51437 8.89497 1.39048C8.77109 1.2666 8.624 1.16834 8.46212 1.10133Z" stroke="black"/>
</svg>
