<svg width="19.51" height="18.76" viewBox="0 0 20 19" fill="none" xmlns="http://www.w3.org/2000/svg">
<path d="M16.75 12.25C16.0871 12.2496 15.4429 12.47 14.9191 12.8762L12.7525 11.1887C12.9161 10.8138 13.0003 10.4091 13 9.99999C13 9.93061 13 9.86124 12.9925 9.7928L14.2328 9.37936C14.6252 9.98456 15.2225 10.4281 15.9153 10.6288C16.6081 10.8295 17.35 10.7738 18.0051 10.4721C18.6603 10.1703 19.1847 9.64262 19.4825 8.98567C19.7802 8.32872 19.8313 7.58649 19.6264 6.89494C19.4215 6.20338 18.9743 5.60881 18.3667 5.22012C17.7591 4.83144 17.0318 4.67466 16.318 4.77852C15.6043 4.88238 14.9518 5.23991 14.4802 5.78563C14.0086 6.33135 13.7494 7.02871 13.75 7.74999C13.75 7.81936 13.75 7.88874 13.7575 7.95718L12.5172 8.37061C12.2453 7.95027 11.8725 7.60465 11.4329 7.36525C10.9932 7.12585 10.5006 7.00028 10 6.99999C9.83448 7.00033 9.66925 7.01413 9.50595 7.04124L8.8647 5.59374C9.4184 5.15133 9.79759 4.52716 9.93506 3.83188C10.0725 3.13659 9.95939 2.41509 9.61571 1.79525C9.27203 1.17541 8.72 0.697267 8.05746 0.445562C7.39491 0.193858 6.66465 0.184851 5.9961 0.420137C5.32755 0.655424 4.76389 1.11981 4.40503 1.73098C4.04616 2.34216 3.91527 3.06065 4.03555 3.75911C4.15582 4.45758 4.5195 5.0909 5.06212 5.54684C5.60475 6.00277 6.29127 6.25187 7.00001 6.24999C7.16554 6.24965 7.33078 6.23585 7.49407 6.20874L8.13532 7.65249C7.59153 8.08288 7.21411 8.68878 7.06756 9.36662C6.92102 10.0445 7.01445 10.7522 7.33189 11.3687L4.92157 13.51C4.315 13.1011 3.5801 12.9274 2.85464 13.0216C2.12918 13.1157 1.46296 13.4712 0.980856 14.0214C0.498754 14.5716 0.233869 15.2788 0.235851 16.0103C0.237833 16.7419 0.506546 17.4476 0.991623 17.9952C1.4767 18.5428 2.14484 18.8946 2.8708 18.9849C3.59676 19.0751 4.3307 18.8974 4.93505 18.4852C5.53941 18.073 5.97268 17.4546 6.15366 16.7458C6.33464 16.0369 6.2509 15.2865 5.91814 14.635L8.32845 12.4937C8.85033 12.8451 9.4697 13.023 10.0985 13.0022C10.7273 12.9813 11.3335 12.7627 11.8309 12.3775L13.9975 14.065C13.8345 14.4388 13.7502 14.8422 13.75 15.25C13.75 15.8433 13.926 16.4234 14.2556 16.9167C14.5852 17.41 15.0538 17.7946 15.602 18.0216C16.1501 18.2487 16.7533 18.3081 17.3353 18.1923C17.9172 18.0766 18.4518 17.7909 18.8713 17.3713C19.2909 16.9518 19.5766 16.4172 19.6924 15.8353C19.8081 15.2533 19.7487 14.6501 19.5217 14.1019C19.2946 13.5538 18.9101 13.0852 18.4167 12.7556C17.9234 12.4259 17.3434 12.25 16.75 12.25ZM16.75 6.24999C17.0467 6.24999 17.3367 6.33796 17.5834 6.50278C17.83 6.66761 18.0223 6.90187 18.1358 7.17596C18.2494 7.45005 18.2791 7.75165 18.2212 8.04262C18.1633 8.3336 18.0205 8.60087 17.8107 8.81065C17.6009 9.02043 17.3336 9.16329 17.0426 9.22117C16.7517 9.27904 16.4501 9.24934 16.176 9.13581C15.9019 9.02228 15.6676 8.83002 15.5028 8.58334C15.338 8.33667 15.25 8.04666 15.25 7.74999C15.25 7.35216 15.408 6.97063 15.6894 6.68933C15.9707 6.40802 16.3522 6.24999 16.75 6.24999ZM5.50001 3.24999C5.50001 2.95332 5.58799 2.66331 5.75281 2.41663C5.91763 2.16996 6.1519 1.9777 6.42599 1.86417C6.70008 1.75064 7.00168 1.72093 7.29265 1.77881C7.58362 1.83669 7.85089 1.97955 8.06067 2.18933C8.27045 2.39911 8.41331 2.66638 8.47119 2.95735C8.52907 3.24833 8.49936 3.54993 8.38583 3.82401C8.2723 4.0981 8.08004 4.33237 7.83337 4.49719C7.58669 4.66202 7.29668 4.74999 7.00001 4.74999C6.60219 4.74999 6.22066 4.59195 5.93935 4.31065C5.65805 4.02934 5.50001 3.64781 5.50001 3.24999ZM3.25001 17.5C2.95334 17.5 2.66333 17.412 2.41666 17.2472C2.16998 17.0824 1.97772 16.8481 1.86419 16.574C1.75066 16.2999 1.72096 15.9983 1.77883 15.7074C1.83671 15.4164 1.97957 15.1491 2.18935 14.9393C2.39913 14.7296 2.6664 14.5867 2.95738 14.5288C3.24835 14.4709 3.54995 14.5006 3.82404 14.6142C4.09813 14.7277 4.33239 14.92 4.49722 15.1666C4.66204 15.4133 4.75001 15.7033 4.75001 16C4.75001 16.3978 4.59198 16.7793 4.31067 17.0606C4.02937 17.342 3.64784 17.5 3.25001 17.5ZM16.75 16.75C16.4533 16.75 16.1633 16.662 15.9167 16.4972C15.67 16.3324 15.4777 16.0981 15.3642 15.824C15.2507 15.5499 15.221 15.2483 15.2788 14.9574C15.3367 14.6664 15.4796 14.3991 15.6894 14.1893C15.8991 13.9796 16.1664 13.8367 16.4574 13.7788C16.7483 13.7209 17.0499 13.7506 17.324 13.8642C17.5981 13.9777 17.8324 14.17 17.9972 14.4166C18.162 14.6633 18.25 14.9533 18.25 15.25C18.25 15.6478 18.092 16.0293 17.8107 16.3106C17.5294 16.592 17.1478 16.75 16.75 16.75Z" fill="black"/>
</svg>
