<svg width="16" height="20" viewBox="0 0 18 22" fill="none" xmlns="http://www.w3.org/2000/svg">
<path d="M16 6H2C1.73478 6 1.48043 6.10536 1.29289 6.29289C1.10536 6.48043 1 6.73478 1 7V20C1 20.2652 1.10536 20.5196 1.29289 20.7071C1.48043 20.8946 1.73478 21 2 21H16C16.2652 21 16.5196 20.8946 16.7071 20.7071C16.8946 20.5196 17 20.2652 17 20V7C17 6.73478 16.8946 6.48043 16.7071 6.29289C16.5196 6.10536 16.2652 6 16 6Z" stroke="black" stroke-width="2" stroke-linecap="round" stroke-linejoin="round"/>
<path d="M5.5 8V4.5C5.5 4.04037 5.59053 3.58525 5.76642 3.16061C5.94231 2.73597 6.20012 2.35013 6.52513 2.02513C6.85013 1.70012 7.23597 1.44231 7.66061 1.26642C8.08525 1.09053 8.54037 1 9 1C9.45963 1 9.91475 1.09053 10.3394 1.26642C10.764 1.44231 11.1499 1.70012 11.4749 2.02513C11.7999 2.35013 12.0577 2.73597 12.2336 3.16061C12.4095 3.58525 12.5 4.04037 12.5 4.5V8" stroke="black" stroke-width="2" stroke-linecap="round" stroke-linejoin="round"/>
</svg>
