<svg width="18" height="20" viewBox="0 0 18 20" fill="none" xmlns="http://www.w3.org/2000/svg">
<path d="M5.85 11L7.3 9.55C7.5 9.35 7.596 9.11667 7.588 8.85C7.58 8.58333 7.484 8.35 7.3 8.15C7.1 7.95 6.86267 7.846 6.588 7.838C6.31333 7.83 6.07567 7.92567 5.875 8.125L3.7 10.3C3.5 10.5 3.4 10.7333 3.4 11C3.4 11.2667 3.5 11.5 3.7 11.7L5.875 13.875C6.075 14.075 6.31267 14.171 6.588 14.163C6.86333 14.155 7.10067 14.0507 7.3 13.85C7.48333 13.65 7.57933 13.4167 7.588 13.15C7.59667 12.8833 7.50067 12.65 7.3 12.45L5.85 11ZM12.15 11L10.7 12.45C10.5 12.65 10.404 12.8833 10.412 13.15C10.42 13.4167 10.516 13.65 10.7 13.85C10.9 14.05 11.1377 14.154 11.413 14.162C11.6883 14.17 11.9257 14.0743 12.125 13.875L14.3 11.7C14.5 11.5 14.6 11.2667 14.6 11C14.6 10.7333 14.5 10.5 14.3 10.3L12.125 8.125C11.925 7.925 11.6877 7.829 11.413 7.837C11.1383 7.845 10.9007 7.94933 10.7 8.15C10.5167 8.35 10.421 8.58333 10.413 8.85C10.405 9.11667 10.5007 9.35 10.7 9.55L12.15 11ZM2 20C1.45 20 0.979333 19.8043 0.588 19.413C0.196667 19.0217 0.000666667 18.5507 0 18V4C0 3.45 0.196 2.97933 0.588 2.588C0.98 2.19667 1.45067 2.00067 2 2H6.2C6.41667 1.4 6.77933 0.916667 7.288 0.55C7.79667 0.183333 8.36733 0 9 0C9.63267 0 10.2037 0.183333 10.713 0.55C11.2223 0.916667 11.5847 1.4 11.8 2H16C16.55 2 17.021 2.196 17.413 2.588C17.805 2.98 18.0007 3.45067 18 4V18C18 18.55 17.8043 19.021 17.413 19.413C17.0217 19.805 16.5507 20.0007 16 20H2ZM2 18H16V4H2V18ZM9 3.25C9.21667 3.25 9.396 3.179 9.538 3.037C9.68 2.895 9.75067 2.716 9.75 2.5C9.74933 2.284 9.67833 2.105 9.537 1.963C9.39567 1.821 9.21667 1.75 9 1.75C8.78333 1.75 8.60433 1.821 8.463 1.963C8.32167 2.105 8.25067 2.284 8.25 2.5C8.24933 2.716 8.32033 2.89533 8.463 3.038C8.60567 3.18067 8.78467 3.25133 9 3.25Z" fill="black"/>
</svg>
