
<svg width="18" height="20" viewBox="0 0 18 20" fill="none" xmlns="http://www.w3.org/2000/svg">
<path d="M17 20H3C2.20435 20 1.44129 19.6839 0.87868 19.1213C0.316071 18.5587 0 17.7956 0 17V3C0 2.20435 0.316071 1.44129 0.87868 0.87868C1.44129 0.316071 2.20435 0 3 0H17C17.2652 0 17.5196 0.105357 17.7071 0.292893C17.8946 0.48043 18 0.734784 18 1V19C18 19.2652 17.8946 19.5196 17.7071 19.7071C17.5196 19.8946 17.2652 20 17 20ZM16 18V16H3C2.73478 16 2.48043 16.1054 2.29289 16.2929C2.10536 16.4804 2 16.7348 2 17C2 17.2652 2.10536 17.5196 2.29289 17.7071C2.48043 17.8946 2.73478 18 3 18H16ZM2 14.17C2.313 14.06 2.65 14 3 14H16V2H3C2.73478 2 2.48043 2.10536 2.29289 2.29289C2.10536 2.48043 2 2.73478 2 3V14.17ZM9 8C8.46957 8 7.96086 7.78929 7.58579 7.41421C7.21071 7.03914 7 6.53043 7 6C7 5.46957 7.21071 4.96086 7.58579 4.58579C7.96086 4.21071 8.46957 4 9 4C9.53043 4 10.0391 4.21071 10.4142 4.58579C10.7893 4.96086 11 5.46957 11 6C11 6.53043 10.7893 7.03914 10.4142 7.41421C10.0391 7.78929 9.53043 8 9 8ZM6 12C6 11.2044 6.31607 10.4413 6.87868 9.87868C7.44129 9.31607 8.20435 9 9 9C9.79565 9 10.5587 9.31607 11.1213 9.87868C11.6839 10.4413 12 11.2044 12 12H6Z" fill="black"/>
</svg>
